<svg width="23" height="21" viewBox="0 0 23 21" fill="none" xmlns="http://www.w3.org/2000/svg">
<g>
  <path d="M13.4 12.8285L9.3 16.75C7.6 18.45 4.9 18.45 3.3 16.75C1.6 15.05 1.6 12.35 3.3 10.75L11.3 2.75C12.3 1.85 13.8 1.85 14.8 2.75C15.8 3.75 15.8 5.35 14.8 6.25L7.9 13.15C7.6 13.45 7.1 13.45 6.8 13.15C6.5 12.85 6.5 12.35 6.8 12.05L11.9 6.95C12.3 6.55 12.3 5.95 11.9 5.55C11.5 5.15 10.9 5.15 10.5 5.55L5.4 10.75C4.3 11.85 4.3 13.55 5.4 14.65C6.5 15.65 8.2 15.65 9.3 14.65L16.2 7.75C18 5.95 18 3.15 16.2 1.35C14.4 -0.45 11.6 -0.45 9.8 1.35L1.8 9.35C0.6 10.55 0 12.15 0 13.75C0 17.25 2.8 19.95 6.3 19.95C8 19.95 9.5 19.25 10.7 18.15L14.8 14.2285C15.2 13.8285 15.2 13.2285 14.8 12.8285C14.4 12.4285 13.8 12.4285 13.4 12.8285Z" fill="current"/>
  <path d="M19.0114 11.9669L15.7486 11.974C15.6161 11.974 15.4848 11.9479 15.3624 11.8972C15.2399 11.8465 15.1286 11.7721 15.0349 11.6784C14.9412 11.5847 14.8668 11.4734 14.8161 11.3509C14.7654 11.2285 14.7392 11.0972 14.7392 10.9646C14.7392 10.8321 14.7654 10.7008 14.8161 10.5784C14.8668 10.4559 14.9412 10.3446 15.0349 10.2509C15.1286 10.1572 15.2399 10.0828 15.3624 10.0321C15.4848 9.98136 15.6161 9.95525 15.7486 9.95525L21.4354 9.95525C21.5677 9.95814 21.6981 9.98712 21.8192 10.0405C22.0634 10.1425 22.2575 10.3366 22.3594 10.5808C22.4129 10.7019 22.4419 10.8323 22.4447 10.9646V16.6514C22.4453 16.7841 22.4196 16.9156 22.369 17.0383C22.3185 17.161 22.2442 17.2725 22.1503 17.3663C22.0565 17.4602 21.945 17.5345 21.8223 17.585C21.6996 17.6356 21.5681 17.6613 21.4354 17.6608C21.3026 17.6613 21.1711 17.6356 21.0484 17.585C20.9257 17.5345 20.8142 17.4602 20.7204 17.3663C20.6266 17.2725 20.5522 17.161 20.5017 17.0383C20.4512 16.9156 20.4254 16.7841 20.426 16.6514L20.4331 13.3886L13.6161 20.2056C13.4276 20.3941 13.1719 20.5 12.9053 20.5C12.6387 20.5 12.383 20.3941 12.1944 20.2056C12.0059 20.017 11.9 19.7613 11.9 19.4947C11.9 19.2281 12.0059 18.9724 12.1944 18.7839L19.0114 11.9669Z" fill="current"/>
</g>
</svg>
