<svg width="16" height="16" viewBox="0 0 16 16" fill="none" xmlns="http://www.w3.org/2000/svg">
<path d="M6.1937 10.5863L8.78037 7.99967L6.1937 5.413C6.13198 5.35128 6.08302 5.27801 6.04962 5.19736C6.01622 5.11672 5.99902 5.03029 5.99902 4.943C5.99902 4.85571 6.01622 4.76928 6.04962 4.68864C6.08302 4.608 6.13198 4.53472 6.1937 4.473C6.25543 4.41128 6.3287 4.36232 6.40934 4.32892C6.48998 4.29551 6.57642 4.27832 6.6637 4.27832C6.75099 4.27832 6.83742 4.29551 6.91807 4.32892C6.99871 4.36232 7.07198 4.41128 7.1337 4.473L10.1937 7.533C10.4537 7.793 10.4537 8.213 10.1937 8.473L7.1337 11.533C7.07203 11.5948 6.99877 11.6438 6.91812 11.6773C6.83747 11.7107 6.75102 11.728 6.6637 11.728C6.57639 11.728 6.48994 11.7107 6.40929 11.6773C6.32864 11.6438 6.25538 11.5948 6.1937 11.533C5.94037 11.273 5.9337 10.8463 6.1937 10.5863Z" fill="#46494D"/>
</svg>
