<svg width="73" height="73" viewBox="0 0 73 73" fill="none" xmlns="http://www.w3.org/2000/svg">
<g clip-path="url(#clip0_977_7178)">
<path d="M0 16C0 7.16344 7.16344 0 16 0H57C65.8366 0 73 7.16344 73 16V57C73 65.8366 65.8366 73 57 73H16C7.16344 73 0 65.8366 0 57V16Z" fill="#D968D3" fill-opacity="0.15"/>
<path d="M54.1112 31.9149L6.27344 109.63L71.6823 101.367L78.4803 74.7857L54.1188 31.9072L54.1112 31.9149Z" fill="#D968D3"/>
<path d="M22.624 78.9208C23.9287 78.9437 36.632 79.0963 38.3716 73.8243C38.9209 72.1686 38.6386 69.1778 37.4255 68.72C36.5786 68.3996 35.1442 69.2541 35.1442 69.9942C35.1442 71.6269 42.0872 73.809 48.4351 73.1986C54.6532 72.6035 61.6725 69.1931 61.5504 66.2023C61.4894 64.6916 59.5896 63.0589 58.2544 63.3183C57.0565 63.5548 55.9731 65.3706 56.3241 66.6906C57.1328 69.8034 66.3723 72.0466 72.5905 68.3233C75.4211 66.6295 76.9241 64.127 77.6413 62.6621" stroke="white" stroke-width="0.37037" stroke-miterlimit="10"/>
<path d="M43.1705 54.2172L92.168 38.9045L47.6491 13.2766C45.3449 11.6972 42.7661 10.507 40.0271 9.9653C32.9391 8.56908 25.2485 10.4841 19.4957 15.9927C11.477 23.6681 10.1037 36.2265 16.2684 45.4507C20.7088 52.0961 27.8273 55.6363 35.0754 55.7812C37.8526 55.8423 40.5993 55.2395 43.1781 54.2095L43.1705 54.2172Z" fill="#00FAC8"/>
<path d="M34.6637 51.2179C44.9114 51.2179 53.2189 42.9105 53.2189 32.6627C53.2189 22.4149 44.9114 14.1074 34.6637 14.1074C24.4159 14.1074 16.1084 22.4149 16.1084 32.6627C16.1084 42.9105 24.4159 51.2179 34.6637 51.2179Z" fill="#D968D3"/>
<mask id="mask0_977_7178" style="mask-type:luminance" maskUnits="userSpaceOnUse" x="16" y="14" width="38" height="38">
<path d="M34.6637 51.2179C44.9114 51.2179 53.2189 42.9105 53.2189 32.6627C53.2189 22.4149 44.9114 14.1074 34.6637 14.1074C24.4159 14.1074 16.1084 22.4149 16.1084 32.6627C16.1084 42.9105 24.4159 51.2179 34.6637 51.2179Z" fill="white"/>
</mask>
<g mask="url(#mask0_977_7178)">
<path d="M50.7923 18.7305L42.5065 13.1914L24.3632 14.4503L16.2987 23.583L14.2158 23.6059C14.2158 23.6059 16.7031 36.9119 23.524 25.0631C24.4166 28.1226 27.0412 34.211 32.2752 25.3988C33.267 28.5804 35.9603 34.0584 41.1484 25.0173H41.1637C42.1021 28.2599 45.0166 35.0961 50.983 23.4838L50.7923 18.7229V18.7305Z" fill="#171819"/>
</g>
<path d="M18.5496 37.0341C18.5496 37.0341 20.0603 33.2422 23.2495 33.2422C26.4387 33.2422 27.8807 37.0341 27.8807 37.0341C27.8807 37.0341 27.0414 40.9557 23.2113 40.9557C19.3813 40.9557 18.542 37.0341 18.542 37.0341H18.5496Z" fill="white"/>
<mask id="mask1_977_7178" style="mask-type:luminance" maskUnits="userSpaceOnUse" x="18" y="33" width="10" height="8">
<path d="M18.5496 37.0341C18.5496 37.0341 20.0603 33.2422 23.2495 33.2422C26.4387 33.2422 27.8807 37.0341 27.8807 37.0341C27.8807 37.0341 27.0414 40.9557 23.2113 40.9557C19.3813 40.9557 18.542 37.0341 18.542 37.0341H18.5496Z" fill="white"/>
</mask>
<g mask="url(#mask1_977_7178)">
<path d="M23.6688 44.2827C22.7074 36.9278 23.6688 30.2061 23.6688 30.2061L17.8474 33.7081L17.3057 38.7665L23.6688 44.2827Z" fill="#171819"/>
</g>
<path d="M29.994 37.0341C29.994 37.0341 31.5046 33.2422 34.6938 33.2422C37.883 33.2422 39.325 37.0341 39.325 37.0341C39.325 37.0341 38.4857 40.9557 34.6557 40.9557C30.8256 40.9557 29.9863 37.0341 29.9863 37.0341H29.994Z" fill="white"/>
<mask id="mask2_977_7178" style="mask-type:luminance" maskUnits="userSpaceOnUse" x="29" y="33" width="11" height="8">
<path d="M29.994 37.0341C29.994 37.0341 31.5046 33.2422 34.6938 33.2422C37.883 33.2422 39.325 37.0341 39.325 37.0341C39.325 37.0341 38.4857 40.9557 34.6557 40.9557C30.8256 40.9557 29.9863 37.0341 29.9863 37.0341H29.994Z" fill="white"/>
</mask>
<g mask="url(#mask2_977_7178)">
<path d="M35.1131 44.2827C34.1518 36.9278 35.1131 30.2061 35.1131 30.2061L29.2917 33.7081L28.75 38.7665L35.1131 44.2827Z" fill="#171819"/>
</g>
<path d="M28.8268 42.6037C30.4111 42.6037 31.6955 41.3193 31.6955 39.735C31.6955 38.1506 30.4111 36.8662 28.8268 36.8662C27.2424 36.8662 25.958 38.1506 25.958 39.735C25.958 41.3193 27.2424 42.6037 28.8268 42.6037Z" fill="#00FAC8"/>
<path d="M26.7588 44.3135C26.8656 46.549 28.8035 47.8918 30.1845 47.5942C31.4739 47.3196 32.6183 45.5495 32.1148 43.5811" stroke="white" stroke-width="0.37037" stroke-miterlimit="10" stroke-linecap="round"/>
</g>
<defs>
<clipPath id="clip0_977_7178">
<path d="M0 16C0 7.16344 7.16344 0 16 0H57C65.8366 0 73 7.16344 73 16V57C73 65.8366 65.8366 73 57 73H16C7.16344 73 0 65.8366 0 57V16Z" fill="white"/>
</clipPath>
</defs>
</svg>
