<svg width="103" height="103" viewBox="0 0 103 103" fill="none" xmlns="http://www.w3.org/2000/svg">
<path d="M39.0787 83.4602L38.5599 76.4867L19.5545 77.9058C19.2264 77.4328 18.9594 77.1352 18.9594 77.1352C18.9594 77.1352 13.489 71.3978 11.2001 74.0605C8.90355 76.7232 14.6258 84.9938 17.0062 85.0777C17.3267 85.0853 17.6242 85.0701 17.8989 85.0243V85.0395L39.0864 83.4602H39.0787Z" fill="#2A2C2E"/>
<mask id="mask0_1169_16229" style="mask-type:luminance" maskUnits="userSpaceOnUse" x="10" y="73" width="30" height="13">
<path d="M39.0787 83.4602L38.5599 76.4867L19.5545 77.9058C19.2264 77.4328 18.9594 77.1352 18.9594 77.1352C18.9594 77.1352 13.489 71.3978 11.2001 74.0605C8.90355 76.7232 14.6258 84.9938 17.0062 85.0777C17.3267 85.0853 17.6242 85.0701 17.8989 85.0243V85.0395L39.0864 83.4602H39.0787Z" fill="white"/>
</mask>
<g mask="url(#mask0_1169_16229)">
<path d="M30.4021 95.4852L28.665 72.165L5.34483 73.9021L7.08191 97.2223L30.4021 95.4852Z" fill="#00FAC8"/>
</g>
<path d="M27.6109 83.0099C28.0028 83.0099 28.3205 82.6923 28.3205 82.3004C28.3205 81.9085 28.0028 81.5908 27.6109 81.5908C27.219 81.5908 26.9014 81.9085 26.9014 82.3004C26.9014 82.6923 27.219 83.0099 27.6109 83.0099Z" fill="#46494D"/>
<path d="M25.5211 83.1623C25.913 83.1623 26.2306 82.8446 26.2306 82.4527C26.2306 82.0608 25.913 81.7432 25.5211 81.7432C25.1292 81.7432 24.8115 82.0608 24.8115 82.4527C24.8115 82.8446 25.1292 83.1623 25.5211 83.1623Z" fill="#46494D"/>
<path d="M98.1625 20.2646L86.5807 71.2306L33.2954 66.5994L44.8772 75.8694L63.5164 91.2584L42.2755 101.215L33.2954 66.607H30.976L24.0254 45.7552L98.1625 20.2646Z" fill="#8860FF"/>
<path d="M45.381 92.0358L42.8938 85.5049L25.0786 92.2876C24.6284 91.929 24.2927 91.7154 24.2927 91.7154C24.2927 91.7154 17.4184 87.7785 15.9764 90.983C14.5344 94.1874 22.3777 100.482 24.6818 99.8867C24.9946 99.8028 25.2693 99.7036 25.5211 99.5816V99.5968L45.381 92.0358Z" fill="#2A2C2E"/>
<mask id="mask1_1169_16229" style="mask-type:luminance" maskUnits="userSpaceOnUse" x="15" y="85" width="31" height="15">
<path d="M45.381 92.0358L42.8938 85.5049L25.0786 92.2876C24.6284 91.929 24.2927 91.7154 24.2927 91.7154C24.2927 91.7154 17.4184 87.7785 15.9764 90.983C14.5344 94.1874 22.3777 100.482 24.6818 99.8867C24.9946 99.8028 25.2693 99.7036 25.5211 99.5816V99.5968L45.381 92.0358Z" fill="white"/>
</mask>
<g mask="url(#mask1_1169_16229)">
<path d="M40.4873 106.046L32.168 84.1914L10.313 92.5108L18.6324 114.366L40.4873 106.046Z" fill="#00FAC8"/>
</g>
<path d="M34.0514 94.9045C34.4432 94.9045 34.7609 94.5868 34.7609 94.1949C34.7609 93.803 34.4432 93.4854 34.0514 93.4854C33.6595 93.4854 33.3418 93.803 33.3418 94.1949C33.3418 94.5868 33.6595 94.9045 34.0514 94.9045Z" fill="#46494D"/>
<path d="M32.0982 95.6525C32.4901 95.6525 32.8078 95.3348 32.8078 94.943C32.8078 94.5511 32.4901 94.2334 32.0982 94.2334C31.7064 94.2334 31.3887 94.5511 31.3887 94.943C31.3887 95.3348 31.7064 95.6525 32.0982 95.6525Z" fill="#46494D"/>
<path d="M71.5498 55.0337L49.4941 42.2998L48.2543 44.4472L70.31 57.1811L71.5498 55.0337Z" fill="white"/>
<path d="M36.5768 47.1895L87.4436 40.2694L47.8229 7.56879C45.8087 5.62324 43.474 4.02101 40.857 3.03679C34.1048 0.473237 26.2005 1.08361 19.6085 5.55457C10.4224 11.7803 6.96622 23.9343 11.5058 34.0589C14.7713 41.3528 21.2031 46.0298 28.3216 47.3878C31.0453 47.9066 33.8607 47.7769 36.5692 47.1895H36.5768Z" fill="#00FAC8"/>
<path d="M32.0982 43.1759C42.346 43.1759 50.6535 34.8685 50.6535 24.6207C50.6535 14.3729 42.346 6.06543 32.0982 6.06543C21.8504 6.06543 13.543 14.3729 13.543 24.6207C13.543 34.8685 21.8504 43.1759 32.0982 43.1759Z" fill="#8860FF"/>
<mask id="mask2_1169_16229" style="mask-type:luminance" maskUnits="userSpaceOnUse" x="13" y="6" width="38" height="38">
<path d="M32.0982 43.1759C42.346 43.1759 50.6535 34.8685 50.6535 24.6207C50.6535 14.3729 42.346 6.06543 32.0982 6.06543C21.8504 6.06543 13.543 14.3729 13.543 24.6207C13.543 34.8685 21.8504 43.1759 32.0982 43.1759Z" fill="white"/>
</mask>
<g mask="url(#mask2_1169_16229)">
<path d="M48.22 10.6817L39.9342 5.14258L21.791 6.40147L13.7264 15.5341L11.6436 15.557C11.6436 15.557 14.1308 28.8631 20.9517 17.0143C21.8444 20.0738 24.469 26.1622 29.7029 17.35C30.6947 20.5315 33.388 26.0096 38.5761 16.9685H38.5914C39.5299 20.2111 42.4444 27.0472 48.4107 15.4349L48.22 10.6741V10.6817Z" fill="#1E2021"/>
</g>
<path d="M20.2874 23.0107H19.8754C18.0172 23.0107 16.5107 24.5172 16.5107 26.3754V29.3815C16.5107 31.2397 18.0172 32.7461 19.8754 32.7461H20.2874C22.1457 32.7461 23.6521 31.2397 23.6521 29.3815V26.3754C23.6521 24.5172 22.1457 23.0107 20.2874 23.0107Z" fill="white"/>
<path d="M22.237 27.8708L19.3184 24.9521L16.3997 27.8708L19.3184 30.7895L22.237 27.8708Z" fill="#1E2021"/>
<path d="M30.5267 23.0107H30.1147C28.2564 23.0107 26.75 24.5172 26.75 26.3754V29.3815C26.75 31.2397 28.2564 32.7461 30.1147 32.7461H30.5267C32.3849 32.7461 33.8913 31.2397 33.8913 29.3815V26.3754C33.8913 24.5172 32.3849 23.0107 30.5267 23.0107Z" fill="white"/>
<path d="M32.4763 27.8708L29.5576 24.9521L26.6389 27.8708L29.5576 30.7895L32.4763 27.8708Z" fill="#1E2021"/>
<path d="M25.026 34.4709C26.6103 34.4709 27.8947 33.1865 27.8947 31.6021C27.8947 30.0178 26.6103 28.7334 25.026 28.7334C23.4416 28.7334 22.1572 30.0178 22.1572 31.6021C22.1572 33.1865 23.4416 34.4709 25.026 34.4709Z" fill="#00FAC8"/>
</svg>
