<svg width="103" height="103" viewBox="0 0 103 103" fill="none" xmlns="http://www.w3.org/2000/svg">
<path d="M25.4066 77.54L30.3506 72.596L16.8767 59.1221C17.0216 58.5651 17.075 58.1684 17.075 58.1684C17.075 58.1684 17.8533 50.2794 14.336 50.2794C10.8187 50.2794 8.28569 60.0071 9.7811 61.8611C9.97947 62.1129 10.1931 62.3189 10.3991 62.502L10.3838 62.5173L25.4066 77.54Z" fill="#00FAC8"/>
<mask id="mask0_1169_15989" style="mask-type:luminance" maskUnits="userSpaceOnUse" x="9" y="50" width="22" height="28">
<path d="M25.4066 77.54L30.3506 72.596L16.8767 59.1221C17.0216 58.5651 17.075 58.1684 17.075 58.1684C17.075 58.1684 17.8533 50.2794 14.336 50.2794C10.8187 50.2794 8.28569 60.0071 9.7811 61.8611C9.97947 62.1129 10.1931 62.3189 10.3991 62.502L10.3838 62.5173L25.4066 77.54Z" fill="white"/>
</mask>
<g mask="url(#mask0_1169_15989)">
<path d="M10.6305 78.811L27.166 62.2754L10.6305 45.7398L-5.90511 62.2754L10.6305 78.811Z" fill="#2A2C2E"/>
</g>
<path d="M18.7992 67.3846C18.4074 67.3846 18.0897 67.7023 18.0897 68.0942C18.0897 68.486 18.4074 68.8037 18.7992 68.8037C19.1911 68.8037 19.5088 68.486 19.5088 68.0942C19.5088 67.7023 19.1911 67.3846 18.7992 67.3846Z" fill="#46494D"/>
<path d="M17.3188 65.9051C16.9269 65.9051 16.6092 66.2228 16.6092 66.6147C16.6092 67.0065 16.9269 67.3242 17.3188 67.3242C17.7106 67.3242 18.0283 67.0065 18.0283 66.6147C18.0283 66.2228 17.7106 65.9051 17.3188 65.9051Z" fill="#46494D"/>
<path d="M69.483 88.1755L84.0098 55.0934L64.6458 23.6212L58.9998 45.4038L14.6183 42.9852L25.109 68.8038L55.7725 60.7317L55.7725 73.641L13.0084 68.7962L18.6544 101.894L69.483 88.1755Z" fill="#FF5B5B"/>
<path d="M24.7356 88.5107L27.6807 82.1705L10.3996 74.1289C10.3461 73.5567 10.2622 73.1676 10.2622 73.1676C10.2622 73.1676 8.28615 65.4921 4.98252 66.6976C1.67889 67.9031 2.63259 77.9132 4.67733 79.1416C4.952 79.3094 5.21903 79.4315 5.47844 79.5307L5.47844 79.5459L24.7356 88.5031L24.7356 88.5107Z" fill="#00FAC8"/>
<mask id="mask1_1169_15989" style="mask-type:luminance" maskUnits="userSpaceOnUse" x="2" y="66" width="26" height="23">
<path d="M24.7356 88.5107L27.6807 82.1705L10.3996 74.1289C10.3461 73.5567 10.2622 73.1676 10.2622 73.1676C10.2622 73.1676 8.28615 65.4921 4.98252 66.6976C1.67889 67.9031 2.63259 77.9132 4.67733 79.1416C4.952 79.3094 5.21903 79.4315 5.47844 79.5307L5.47844 79.5459L24.7356 88.5031L24.7356 88.5107Z" fill="white"/>
</mask>
<g mask="url(#mask1_1169_15989)">
<path d="M11.2851 94.7679L21.1494 73.5654L-0.0530407 63.7011L-9.91739 84.9035L11.2851 94.7679Z" fill="#2A2C2E"/>
</g>
<path d="M15.2904 81.1864C14.8986 81.1864 14.5809 81.504 14.5809 81.8959C14.5809 82.2878 14.8986 82.6055 15.2904 82.6055C15.6823 82.6055 16 82.2878 16 81.8959C16 81.504 15.6823 81.1864 15.2904 81.1864Z" fill="#46494D"/>
<path d="M13.3901 80.3084C12.9982 80.3084 12.6805 80.6261 12.6805 81.018C12.6805 81.4099 12.9982 81.7275 13.3901 81.7275C13.7819 81.7275 14.0996 81.4099 14.0996 81.018C14.0996 80.6261 13.7819 80.3084 13.3901 80.3084Z" fill="#46494D"/>
<path d="M75.5635 70.6348L75.5635 67.0031" stroke="white" stroke-width="0.37037" stroke-miterlimit="10"/>
<path d="M71.4668 66.5303L71.4668 62.8986" stroke="white" stroke-width="0.37037" stroke-miterlimit="10"/>
<path d="M67.3613 62.4326L67.3613 58.8009" stroke="white" stroke-width="0.37037" stroke-miterlimit="10"/>
<path d="M63.2646 58.3359L63.2646 54.7042" stroke="white" stroke-width="0.37037" stroke-miterlimit="10"/>
<path d="M59.167 54.2314L59.167 50.5997" stroke="white" stroke-width="0.37037" stroke-miterlimit="10"/>
<path d="M71.4668 75.4717L71.4668 71.84" stroke="white" stroke-width="0.37037" stroke-miterlimit="10"/>
<path d="M67.3613 71.375L67.3613 67.7433" stroke="white" stroke-width="0.37037" stroke-miterlimit="10"/>
<path d="M63.2646 67.2705L63.2646 63.6388" stroke="white" stroke-width="0.37037" stroke-miterlimit="10"/>
<path d="M59.167 63.1729L59.167 59.5411" stroke="white" stroke-width="0.37037" stroke-miterlimit="10"/>
<path d="M71.4668 84.4141L71.4668 80.7824" stroke="white" stroke-width="0.37037" stroke-miterlimit="10"/>
<path d="M67.3613 80.3096L67.3613 76.6779" stroke="white" stroke-width="0.37037" stroke-miterlimit="10"/>
<path d="M75.5635 52.415L75.5635 48.7833" stroke="white" stroke-width="0.37037" stroke-miterlimit="10"/>
<path d="M75.5635 61.3574L75.5635 57.7257" stroke="white" stroke-width="0.37037" stroke-miterlimit="10"/>
<path d="M71.4668 57.2598L71.4668 53.6281" stroke="white" stroke-width="0.37037" stroke-miterlimit="10"/>
<path d="M67.3613 53.1631L67.3613 49.5314" stroke="white" stroke-width="0.37037" stroke-miterlimit="10"/>
<path d="M63.2646 76.2119L63.2646 72.5802" stroke="white" stroke-width="0.37037" stroke-miterlimit="10"/>
<path d="M59.167 72.1152L59.167 68.4835" stroke="white" stroke-width="0.37037" stroke-miterlimit="10"/>
<path d="M49.4169 47.5249L100.749 48.3184L66.4844 10.0405C64.7906 7.82028 62.7153 5.88236 60.2815 4.50902C53.987 0.961242 46.0827 0.373763 38.8956 3.8071C28.8779 8.58324 23.6364 20.0811 26.6043 30.7778C28.7406 38.4761 34.3941 44.0687 41.2303 46.4796C43.8472 47.4028 46.6473 47.6927 49.4169 47.5249Z" fill="#00FAC8"/>
<path d="M49.3178 6.36311C39.07 6.36311 30.7625 14.6706 30.7625 24.9184C30.7625 35.1662 39.07 43.4736 49.3178 43.4736C59.5656 43.4736 67.873 35.1662 67.873 24.9184C67.873 14.6706 59.5656 6.36311 49.3178 6.36311Z" fill="#FF5B5B"/>
<mask id="mask2_1169_15989" style="mask-type:luminance" maskUnits="userSpaceOnUse" x="30" y="6" width="38" height="38">
<path d="M49.3178 6.36311C39.07 6.36311 30.7625 14.6706 30.7625 24.9184C30.7625 35.1662 39.07 43.4736 49.3178 43.4736C59.5656 43.4736 67.873 35.1662 67.873 24.9184C67.873 14.6706 59.5656 6.36311 49.3178 6.36311Z" fill="white"/>
</mask>
<g mask="url(#mask2_1169_15989)">
<path d="M65.447 10.9863L57.1612 5.44721L39.0179 6.7061L30.9534 15.8388L28.8705 15.8617C28.8705 15.8617 31.3578 29.1677 38.1787 17.3189C39.0713 20.3784 41.6959 26.4668 46.9298 17.6546C47.9217 20.8362 50.615 26.3142 55.8031 17.2731L55.8184 17.2731C56.7568 20.5157 59.6713 27.3519 65.6377 15.7396L65.447 10.9787L65.447 10.9863Z" fill="#1E2021"/>
</g>
<path d="M39.7041 33.6388C42.1761 32.0748 41.3063 28.115 41.2071 27.6877C41.1308 27.3673 40.1847 23.5449 37.6212 23.2397C35.3399 22.965 33.1655 25.6506 32.8222 28.1531C32.5933 29.8164 33.0739 32.1816 35.0195 33.41C36.2784 34.2111 38.2239 34.5773 39.7041 33.6388Z" fill="white"/>
<mask id="mask3_1169_15989" style="mask-type:luminance" maskUnits="userSpaceOnUse" x="32" y="23" width="10" height="12">
<path d="M39.7041 33.6388C42.1761 32.0748 41.3063 28.115 41.2071 27.6877C41.1308 27.3673 40.1847 23.5449 37.6212 23.2397C35.3399 22.965 33.1655 25.6506 32.8222 28.1531C32.5933 29.8164 33.0739 32.1816 35.0195 33.41C36.2784 34.2111 38.2239 34.5773 39.7041 33.6388Z" fill="white"/>
</mask>
<g mask="url(#mask3_1169_15989)">
<path d="M32.547 26.9631C32.4478 28.4204 33.3023 30.3507 34.9427 30.6483C36.5907 30.9458 38.0022 29.4046 38.4752 28.1C39.1466 26.2612 38.3684 23.8045 36.8272 23.3085C35.1106 22.7592 32.6996 24.7353 32.547 26.9631Z" fill="#1E2021"/>
</g>
<path d="M51.4843 33.6388C53.9563 32.0748 53.0866 28.115 52.9874 27.6877C52.9111 27.3673 51.965 23.5449 49.4015 23.2397C47.1202 22.965 44.9458 25.6506 44.6024 28.1531C44.3735 29.8164 44.8542 32.1816 46.7998 33.41C48.0586 34.2111 50.0042 34.5773 51.4843 33.6388Z" fill="white"/>
<mask id="mask4_1169_15989" style="mask-type:luminance" maskUnits="userSpaceOnUse" x="44" y="23" width="10" height="12">
<path d="M51.4843 33.6388C53.9563 32.0748 53.0866 28.115 52.9874 27.6877C52.9111 27.3673 51.965 23.5449 49.4015 23.2397C47.1202 22.965 44.9458 25.6506 44.6024 28.1531C44.3735 29.8164 44.8542 32.1816 46.7998 33.41C48.0586 34.2111 50.0042 34.5773 51.4843 33.6388Z" fill="white"/>
</mask>
<g mask="url(#mask4_1169_15989)">
<path d="M44.3273 26.9631C44.2281 28.4204 45.0826 30.3507 46.723 30.6483C48.371 30.9458 49.7825 29.4046 50.2555 28.1C50.9269 26.2612 50.1487 23.8045 48.6075 23.3085C46.8908 22.7592 44.4799 24.7353 44.3273 26.9631Z" fill="#1E2021"/>
</g>
<path d="M42.8705 29.076C41.2862 29.076 40.0018 30.3604 40.0018 31.9447C40.0018 33.5291 41.2862 34.8135 42.8705 34.8135C44.4549 34.8135 45.7393 33.5291 45.7393 31.9447C45.7393 30.3604 44.4549 29.076 42.8705 29.076Z" fill="#00FAC8"/>
</svg>
