<svg width="73" height="73" viewBox="0 0 73 73" fill="none" xmlns="http://www.w3.org/2000/svg">
<g clip-path="url(#clip0_977_7011)">
<path d="M0 16C0 7.16344 7.16344 0 16 0H57C65.8366 0 73 7.16344 73 16V57C73 65.8366 65.8366 73 57 73H16C7.16344 73 0 65.8366 0 57V16Z" fill="#FF5858" fill-opacity="0.15"/>
<path d="M11.0736 88.54L16.0176 83.596L2.54365 70.1221C2.68861 69.5651 2.74202 69.1684 2.74202 69.1684C2.74202 69.1684 3.52024 61.2794 0.00298357 61.2794C-3.51428 61.2794 -6.04732 71.0071 -4.55191 72.8611C-4.35354 73.1129 -4.1399 73.3189 -3.9339 73.502L-3.94917 73.5173L11.0736 88.54Z" fill="#00FAC8"/>
<mask id="mask0_977_7011" style="mask-type:luminance" maskUnits="userSpaceOnUse" x="-5" y="61" width="22" height="28">
<path d="M11.0736 88.54L16.0176 83.596L2.54365 70.1221C2.68861 69.5651 2.74202 69.1684 2.74202 69.1684C2.74202 69.1684 3.52024 61.2794 0.00298357 61.2794C-3.51428 61.2794 -6.04732 71.0071 -4.55191 72.8611C-4.35354 73.1129 -4.1399 73.3189 -3.9339 73.502L-3.94917 73.5173L11.0736 88.54Z" fill="white"/>
</mask>
<g mask="url(#mask0_977_7011)">
<path d="M-3.70255 89.811L12.833 73.2754L-3.70255 56.7398L-20.2381 73.2754L-3.70255 89.811Z" fill="#171819"/>
</g>
<path d="M55.1499 99.1755L69.6768 66.0934L50.3128 34.6212L44.6668 56.4038L0.285283 53.9852L10.776 79.8038L41.4395 71.7317L41.4395 84.641L-1.32457 79.7962L4.32135 112.894L55.1499 99.1755Z" fill="#FF5858"/>
<path d="M53.0283 73.4326L53.0283 69.8009" stroke="white" stroke-width="0.37037" stroke-miterlimit="10"/>
<path d="M48.9316 69.3359L48.9316 65.7042" stroke="white" stroke-width="0.37037" stroke-miterlimit="10"/>
<path d="M44.834 65.2314L44.834 61.5997" stroke="white" stroke-width="0.37037" stroke-miterlimit="10"/>
<path d="M44.834 74.1729L44.834 70.5411" stroke="white" stroke-width="0.37037" stroke-miterlimit="10"/>
<path d="M61.2305 63.415L61.2305 59.7833" stroke="white" stroke-width="0.37037" stroke-miterlimit="10"/>
<path d="M61.2305 72.3574L61.2305 68.7257" stroke="white" stroke-width="0.37037" stroke-miterlimit="10"/>
<path d="M57.1338 68.2598L57.1338 64.6281" stroke="white" stroke-width="0.37037" stroke-miterlimit="10"/>
<path d="M53.0283 64.1631L53.0283 60.5314" stroke="white" stroke-width="0.37037" stroke-miterlimit="10"/>
<path d="M35.0839 58.5249L86.416 59.3184L52.1514 21.0405C50.4576 18.8203 48.3823 16.8824 45.9485 15.509C39.654 11.9612 31.7497 11.3738 24.5626 14.8071C14.5449 19.5832 9.30335 31.0811 12.2713 41.7778C14.4076 49.4761 20.0611 55.0687 26.8973 57.4796C29.5142 58.4028 32.3143 58.6927 35.0839 58.5249Z" fill="#00FAC8"/>
<path d="M34.9848 17.3631C24.737 17.3631 16.4295 25.6706 16.4295 35.9184C16.4295 46.1662 24.737 54.4736 34.9848 54.4736C45.2326 54.4736 53.54 46.1662 53.54 35.9184C53.54 25.6706 45.2326 17.3631 34.9848 17.3631Z" fill="#FF5858"/>
<mask id="mask1_977_7011" style="mask-type:luminance" maskUnits="userSpaceOnUse" x="16" y="17" width="38" height="38">
<path d="M34.9848 17.3631C24.737 17.3631 16.4295 25.6706 16.4295 35.9184C16.4295 46.1662 24.737 54.4736 34.9848 54.4736C45.2326 54.4736 53.54 46.1662 53.54 35.9184C53.54 25.6706 45.2326 17.3631 34.9848 17.3631Z" fill="white"/>
</mask>
<g mask="url(#mask1_977_7011)">
<path d="M51.1139 21.9863L42.8282 16.4472L24.6849 17.7061L16.6204 26.8388L14.5375 26.8617C14.5375 26.8617 17.0248 40.1677 23.8456 28.3189C24.7383 31.3784 27.3629 37.4668 32.5968 28.6546C33.5887 31.8362 36.2819 37.3142 41.4701 28.2731L41.4854 28.2731C42.4238 31.5157 45.3383 38.3519 51.3047 26.7396L51.1139 21.9787L51.1139 21.9863Z" fill="#171819"/>
</g>
<path d="M25.3711 44.6388C27.8431 43.0748 26.9733 39.115 26.8741 38.6877C26.7978 38.3673 25.8517 34.5449 23.2882 34.2397C21.0069 33.965 18.8325 36.6506 18.4891 39.1531C18.2603 40.8164 18.7409 43.1816 20.6865 44.41C21.9454 45.2111 23.8909 45.5773 25.3711 44.6388Z" fill="white"/>
<mask id="mask2_977_7011" style="mask-type:luminance" maskUnits="userSpaceOnUse" x="18" y="34" width="10" height="12">
<path d="M25.3711 44.6388C27.8431 43.0748 26.9733 39.115 26.8741 38.6877C26.7978 38.3673 25.8517 34.5449 23.2882 34.2397C21.0069 33.965 18.8325 36.6506 18.4891 39.1531C18.2603 40.8164 18.7409 43.1816 20.6865 44.41C21.9454 45.2111 23.8909 45.5773 25.3711 44.6388Z" fill="white"/>
</mask>
<g mask="url(#mask2_977_7011)">
<path d="M18.214 37.9631C18.1148 39.4204 18.9693 41.3507 20.6097 41.6483C22.2577 41.9458 23.6692 40.4046 24.1422 39.1C24.8136 37.2612 24.0354 34.8045 22.4942 34.3085C20.7776 33.7592 18.3666 35.7353 18.214 37.9631Z" fill="#171819"/>
</g>
<path d="M37.1513 44.6388C39.6233 43.0748 38.7536 39.115 38.6544 38.6877C38.5781 38.3673 37.632 34.5449 35.0684 34.2397C32.7872 33.965 30.6127 36.6506 30.2694 39.1531C30.0405 40.8164 30.5212 43.1816 32.4667 44.41C33.7256 45.2111 35.6712 45.5773 37.1513 44.6388Z" fill="white"/>
<mask id="mask3_977_7011" style="mask-type:luminance" maskUnits="userSpaceOnUse" x="30" y="34" width="9" height="12">
<path d="M37.1513 44.6388C39.6233 43.0748 38.7536 39.115 38.6544 38.6877C38.5781 38.3673 37.632 34.5449 35.0684 34.2397C32.7872 33.965 30.6127 36.6506 30.2694 39.1531C30.0405 40.8164 30.5212 43.1816 32.4667 44.41C33.7256 45.2111 35.6712 45.5773 37.1513 44.6388Z" fill="white"/>
</mask>
<g mask="url(#mask3_977_7011)">
<path d="M29.9943 37.9631C29.8951 39.4204 30.7496 41.3507 32.39 41.6483C34.038 41.9458 35.4495 40.4046 35.9225 39.1C36.5939 37.2612 35.8157 34.8045 34.2745 34.3085C32.5578 33.7592 30.1469 35.7353 29.9943 37.9631Z" fill="#171819"/>
</g>
<path d="M28.5375 40.076C26.9531 40.076 25.6688 41.3604 25.6688 42.9447C25.6688 44.5291 26.9531 45.8135 28.5375 45.8135C30.1219 45.8135 31.4063 44.5291 31.4063 42.9447C31.4063 41.3604 30.1219 40.076 28.5375 40.076Z" fill="#00FAC8"/>
</g>
<defs>
<clipPath id="clip0_977_7011">
<path d="M0 16C0 7.16344 7.16344 0 16 0H57C65.8366 0 73 7.16344 73 16V57C73 65.8366 65.8366 73 57 73H16C7.16344 73 0 65.8366 0 57V16Z" fill="white"/>
</clipPath>
</defs>
</svg>
