<svg width="84" height="84" viewBox="0 0 84 84" fill="none" xmlns="http://www.w3.org/2000/svg">
<g filter="url(#filter0_d_3619_33406)">
<g clip-path="url(#clip0_3619_33406)">
<rect x="4" y="3" width="76" height="76" rx="38" fill="#171717"/>
<path d="M59.1115 35.9149L11.2737 113.63L76.6825 105.367L83.4805 78.7857L59.1191 35.9072L59.1115 35.9149Z" fill="#D968D3"/>
<path d="M27.6238 82.9213C28.9284 82.9442 41.6318 83.0968 43.3713 77.8247C43.9207 76.1691 43.6384 73.1783 42.4253 72.7205C41.5784 72.4001 40.144 73.2546 40.144 73.9947C40.144 75.6274 47.087 77.8095 53.4348 77.1991C59.653 76.604 66.6722 73.1936 66.5501 70.2027C66.4891 68.6921 64.5893 67.0593 63.2541 67.3187C62.0563 67.5553 60.9729 69.3711 61.3239 70.691C62.1326 73.8039 71.3721 76.047 77.5902 72.3238C80.4208 70.63 81.9239 68.1275 82.641 66.6626" stroke="white" stroke-width="0.37037" stroke-miterlimit="10"/>
<path d="M48.1705 58.2167L97.168 42.904L52.6491 17.2761C50.3449 15.6967 47.7661 14.5065 45.0271 13.9648C37.9391 12.5686 30.2485 14.4836 24.4957 19.9922C16.477 27.6676 15.1037 40.226 21.2684 49.4502C25.7088 56.0956 32.8273 59.6358 40.0754 59.7807C42.8526 59.8418 45.5993 59.239 48.1781 58.209L48.1705 58.2167Z" fill="#00DDA8"/>
<path d="M39.6634 55.2184C49.9112 55.2184 58.2187 46.911 58.2187 36.6632C58.2187 26.4154 49.9112 18.1079 39.6634 18.1079C29.4156 18.1079 21.1082 26.4154 21.1082 36.6632C21.1082 46.911 29.4156 55.2184 39.6634 55.2184Z" fill="#D968D3"/>
<mask id="mask0_3619_33406" style="mask-type:luminance" maskUnits="userSpaceOnUse" x="21" y="18" width="38" height="38">
<path d="M39.6634 55.2184C49.9112 55.2184 58.2187 46.911 58.2187 36.6632C58.2187 26.4154 49.9112 18.1079 39.6634 18.1079C29.4156 18.1079 21.1082 26.4154 21.1082 36.6632C21.1082 46.911 29.4156 55.2184 39.6634 55.2184Z" fill="white"/>
</mask>
<g mask="url(#mask0_3619_33406)">
<path d="M55.7925 22.7315L47.5067 17.1924L29.3635 18.4513L21.299 27.5839L19.2161 27.6068C19.2161 27.6068 21.7033 40.9129 28.5242 29.0641C29.4169 32.1236 32.0415 38.212 37.2754 29.3998C38.2673 32.5813 40.9605 38.0594 46.1487 29.0183H46.1639C47.1024 32.2609 50.0169 39.097 55.9832 27.4848L55.7925 22.7239V22.7315Z" fill="#171717"/>
</g>
<path d="M23.5499 41.0346C23.5499 41.0346 25.0605 37.2427 28.2497 37.2427C31.4389 37.2427 32.8809 41.0346 32.8809 41.0346C32.8809 41.0346 32.0416 44.9562 28.2116 44.9562C24.3815 44.9562 23.5422 41.0346 23.5422 41.0346H23.5499Z" fill="white"/>
<mask id="mask1_3619_33406" style="mask-type:luminance" maskUnits="userSpaceOnUse" x="23" y="37" width="10" height="8">
<path d="M23.5499 41.0346C23.5499 41.0346 25.0605 37.2427 28.2497 37.2427C31.4389 37.2427 32.8809 41.0346 32.8809 41.0346C32.8809 41.0346 32.0416 44.9562 28.2116 44.9562C24.3815 44.9562 23.5422 41.0346 23.5422 41.0346H23.5499Z" fill="white"/>
</mask>
<g mask="url(#mask1_3619_33406)">
<path d="M28.6693 48.2827C27.7079 40.9278 28.6693 34.2061 28.6693 34.2061L22.8479 37.7081L22.3062 42.7665L28.6693 48.2827Z" fill="#171717"/>
</g>
<path d="M34.9942 41.0346C34.9942 41.0346 36.5049 37.2427 39.6941 37.2427C42.8832 37.2427 44.3252 41.0346 44.3252 41.0346C44.3252 41.0346 43.486 44.9562 39.6559 44.9562C35.8258 44.9562 34.9866 41.0346 34.9866 41.0346H34.9942Z" fill="white"/>
<mask id="mask2_3619_33406" style="mask-type:luminance" maskUnits="userSpaceOnUse" x="34" y="37" width="11" height="8">
<path d="M34.9942 41.0346C34.9942 41.0346 36.5049 37.2427 39.6941 37.2427C42.8832 37.2427 44.3252 41.0346 44.3252 41.0346C44.3252 41.0346 43.486 44.9562 39.6559 44.9562C35.8258 44.9562 34.9866 41.0346 34.9866 41.0346H34.9942Z" fill="white"/>
</mask>
<g mask="url(#mask2_3619_33406)">
<path d="M40.1136 48.2827C39.1523 40.9278 40.1136 34.2061 40.1136 34.2061L34.2922 37.7081L33.7505 42.7665L40.1136 48.2827Z" fill="#171717"/>
</g>
<path d="M33.8268 46.6042C35.4111 46.6042 36.6955 45.3198 36.6955 43.7354C36.6955 42.1511 35.4111 40.8667 33.8268 40.8667C32.2424 40.8667 30.958 42.1511 30.958 43.7354C30.958 45.3198 32.2424 46.6042 33.8268 46.6042Z" fill="#00DDA8"/>
<path d="M31.7593 48.3135C31.8661 50.549 33.804 51.8918 35.185 51.5942C36.4744 51.3196 37.6188 49.5495 37.1153 47.5811" stroke="white" stroke-width="0.37037" stroke-miterlimit="10" stroke-linecap="round"/>
</g>
<rect x="4.5" y="3.5" width="75" height="75" rx="37.5" stroke="#333333"/>
</g>
<defs>
<filter id="filter0_d_3619_33406" x="0" y="0" width="84" height="84" filterUnits="userSpaceOnUse" color-interpolation-filters="sRGB">
<feFlood flood-opacity="0" result="BackgroundImageFix"/>
<feColorMatrix in="SourceAlpha" type="matrix" values="0 0 0 0 0 0 0 0 0 0 0 0 0 0 0 0 0 0 127 0" result="hardAlpha"/>
<feOffset dy="1"/>
<feGaussianBlur stdDeviation="2"/>
<feComposite in2="hardAlpha" operator="out"/>
<feColorMatrix type="matrix" values="0 0 0 0 0 0 0 0 0 0 0 0 0 0 0 0 0 0 0.1 0"/>
<feBlend mode="normal" in2="BackgroundImageFix" result="effect1_dropShadow_3619_33406"/>
<feBlend mode="normal" in="SourceGraphic" in2="effect1_dropShadow_3619_33406" result="shape"/>
</filter>
<clipPath id="clip0_3619_33406">
<rect x="4" y="3" width="76" height="76" rx="38" fill="white"/>
</clipPath>
</defs>
</svg>
