<svg width="73" height="73" viewBox="0 0 73 73" fill="none" xmlns="http://www.w3.org/2000/svg">
<g clip-path="url(#clip0_977_7224)">
<path d="M0 16C0 7.16344 7.16344 0 16 0H57C65.8366 0 73 7.16344 73 16V57C73 65.8366 65.8366 73 57 73H16C7.16344 73 0 65.8366 0 57V16Z" fill="#6F50CB" fill-opacity="0.15"/>
<path d="M101.163 30.2646L89.5807 81.2306L36.2954 76.5994L47.8772 85.8694L66.5164 101.258L45.2755 111.215L36.2954 76.607H33.976L27.0254 55.7552L101.163 30.2646Z" fill="#6F50CB"/>
<path d="M74.5498 65.0337L52.4941 52.2998L51.2543 54.4472L73.31 67.1811L74.5498 65.0337Z" fill="white"/>
<path d="M39.5768 57.1895L90.4436 50.2694L50.8229 17.5688C48.8087 15.6232 46.474 14.021 43.857 13.0368C37.1048 10.4732 29.2005 11.0836 22.6085 15.5546C13.4224 21.7803 9.96622 33.9343 14.5058 44.0589C17.7713 51.3528 24.2031 56.0298 31.3216 57.3878C34.0453 57.9066 36.8607 57.7769 39.5692 57.1895H39.5768Z" fill="#00FAC8"/>
<path d="M35.0982 53.1759C45.346 53.1759 53.6535 44.8685 53.6535 34.6207C53.6535 24.3729 45.346 16.0654 35.0982 16.0654C24.8504 16.0654 16.543 24.3729 16.543 34.6207C16.543 44.8685 24.8504 53.1759 35.0982 53.1759Z" fill="#6F50CB"/>
<mask id="mask0_977_7224" style="mask-type:luminance" maskUnits="userSpaceOnUse" x="16" y="16" width="38" height="38">
<path d="M35.0982 53.1759C45.346 53.1759 53.6535 44.8685 53.6535 34.6207C53.6535 24.3729 45.346 16.0654 35.0982 16.0654C24.8504 16.0654 16.543 24.3729 16.543 34.6207C16.543 44.8685 24.8504 53.1759 35.0982 53.1759Z" fill="white"/>
</mask>
<g mask="url(#mask0_977_7224)">
<path d="M51.22 20.6817L42.9342 15.1426L24.791 16.4015L16.7264 25.5341L14.6436 25.557C14.6436 25.557 17.1308 38.8631 23.9517 27.0143C24.8444 30.0738 27.469 36.1622 32.7029 27.35C33.6947 30.5315 36.388 36.0096 41.5761 26.9685H41.5914C42.5299 30.2111 45.4444 37.0472 51.4107 25.4349L51.22 20.6741V20.6817Z" fill="black"/>
</g>
<path d="M23.2874 33.0107H22.8754C21.0172 33.0107 19.5107 34.5172 19.5107 36.3754V39.3815C19.5107 41.2397 21.0172 42.7461 22.8754 42.7461H23.2874C25.1457 42.7461 26.6521 41.2397 26.6521 39.3815V36.3754C26.6521 34.5172 25.1457 33.0107 23.2874 33.0107Z" fill="white"/>
<path d="M25.237 37.8708L22.3184 34.9521L19.3997 37.8708L22.3184 40.7895L25.237 37.8708Z" fill="black"/>
<path d="M33.5267 33.0107H33.1147C31.2564 33.0107 29.75 34.5172 29.75 36.3754V39.3815C29.75 41.2397 31.2564 42.7461 33.1147 42.7461H33.5267C35.3849 42.7461 36.8913 41.2397 36.8913 39.3815V36.3754C36.8913 34.5172 35.3849 33.0107 33.5267 33.0107Z" fill="white"/>
<path d="M35.4763 37.8708L32.5576 34.9521L29.6389 37.8708L32.5576 40.7895L35.4763 37.8708Z" fill="black"/>
<path d="M28.026 44.4709C29.6103 44.4709 30.8947 43.1865 30.8947 41.6021C30.8947 40.0178 29.6103 38.7334 28.026 38.7334C26.4416 38.7334 25.1572 40.0178 25.1572 41.6021C25.1572 43.1865 26.4416 44.4709 28.026 44.4709Z" fill="#00FAC8"/>
</g>
<defs>
<clipPath id="clip0_977_7224">
<path d="M0 16C0 7.16344 7.16344 0 16 0H57C65.8366 0 73 7.16344 73 16V57C73 65.8366 65.8366 73 57 73H16C7.16344 73 0 65.8366 0 57V16Z" fill="white"/>
</clipPath>
</defs>
</svg>
