<svg width="73" height="73" viewBox="0 0 73 73" fill="none" xmlns="http://www.w3.org/2000/svg">
<g clip-path="url(#clip0_977_7138)">
<path d="M0 16C0 7.16344 7.16344 0 16 0H57C65.8366 0 73 7.16344 73 16V57C73 65.8366 65.8366 73 57 73H16C7.16344 73 0 65.8366 0 57V16Z" fill="#508FFF" fill-opacity="0.15"/>
<path d="M29.6777 44.7979L41.9691 109.352L75.425 93.6504L82.9326 61.377L29.6777 44.7979Z" fill="#508FFF"/>
<path d="M53.1543 58.0737L69.5962 19.3457L99.9544 31.4997L97.4214 49.7269L53.1543 58.0813V58.0737Z" fill="#508FFF"/>
<path d="M85.1521 40.2652L68.6748 36.3428L67.9592 39.3488L84.4366 43.2712L85.1521 40.2652Z" fill="white"/>
<path d="M65.6189 74.0689L49.1416 70.1465L48.426 73.1525L64.9034 77.0749L65.6189 74.0689Z" fill="white"/>
<path d="M35.301 56.2884L86.6331 57.0895L52.3684 18.8116C50.6747 16.5914 48.5994 14.6535 46.1656 13.2802C39.8711 9.73239 31.9668 9.14491 24.7797 12.5782C14.762 17.3544 9.52044 28.8522 12.4884 39.5414C14.6247 47.2396 20.2782 52.8322 27.1144 55.2431C29.7313 56.1663 32.5314 56.4562 35.301 56.2884Z" fill="#00FAC8"/>
<path d="M34.5914 52.2443C44.8392 52.2443 53.1467 43.9368 53.1467 33.689C53.1467 23.4413 44.8392 15.1338 34.5914 15.1338C24.3436 15.1338 16.0361 23.4413 16.0361 33.689C16.0361 43.9368 24.3436 52.2443 34.5914 52.2443Z" fill="#508FFF"/>
<mask id="mask0_977_7138" style="mask-type:luminance" maskUnits="userSpaceOnUse" x="16" y="15" width="38" height="38">
<path d="M34.5914 52.2443C44.8392 52.2443 53.1467 43.9368 53.1467 33.689C53.1467 23.4413 44.8392 15.1338 34.5914 15.1338C24.3436 15.1338 16.0361 23.4413 16.0361 33.689C16.0361 43.9368 24.3436 52.2443 34.5914 52.2443Z" fill="white"/>
</mask>
<g mask="url(#mask0_977_7138)">
<path d="M50.72 19.75L42.4342 14.2109L24.291 15.4698L16.2264 24.6025L14.1436 24.6254C14.1436 24.6254 16.6308 37.9315 23.4517 26.0826C24.3444 29.1421 26.969 35.2306 32.2029 26.4183C33.1947 29.5999 35.888 35.078 41.0761 26.0369H41.0914C42.0299 29.2795 44.9444 36.1156 50.9107 24.5033L50.72 19.7424V19.75Z" fill="#171819"/>
</g>
<path d="M22.8117 41.5102C25.3947 41.5102 27.4887 39.4162 27.4887 36.8332C27.4887 34.2502 25.3947 32.1562 22.8117 32.1562C20.2287 32.1562 18.1348 34.2502 18.1348 36.8332C18.1348 39.4162 20.2287 41.5102 22.8117 41.5102Z" fill="white"/>
<path d="M22.8111 38.3967C23.675 38.3967 24.3752 37.6964 24.3752 36.8326C24.3752 35.9688 23.675 35.2686 22.8111 35.2686C21.9473 35.2686 21.2471 35.9688 21.2471 36.8326C21.2471 37.6964 21.9473 38.3967 22.8111 38.3967Z" fill="#171819"/>
<path d="M34.1027 41.5102C36.6858 41.5102 38.7797 39.4162 38.7797 36.8332C38.7797 34.2502 36.6858 32.1562 34.1027 32.1562C31.5197 32.1562 29.4258 34.2502 29.4258 36.8332C29.4258 39.4162 31.5197 41.5102 34.1027 41.5102Z" fill="white"/>
<path d="M34.1031 38.3967C34.967 38.3967 35.6672 37.6964 35.6672 36.8326C35.6672 35.9688 34.967 35.2686 34.1031 35.2686C33.2393 35.2686 32.5391 35.9688 32.5391 36.8326C32.5391 37.6964 33.2393 38.3967 34.1031 38.3967Z" fill="#171819"/>
<path d="M28.7545 43.631C30.3388 43.631 31.6232 42.3467 31.6232 40.7623C31.6232 39.1779 30.3388 37.8936 28.7545 37.8936C27.1701 37.8936 25.8857 39.1779 25.8857 40.7623C25.8857 42.3467 27.1701 43.631 28.7545 43.631Z" fill="#00FAC8"/>
</g>
<defs>
<clipPath id="clip0_977_7138">
<path d="M0 16C0 7.16344 7.16344 0 16 0H57C65.8366 0 73 7.16344 73 16V57C73 65.8366 65.8366 73 57 73H16C7.16344 73 0 65.8366 0 57V16Z" fill="white"/>
</clipPath>
</defs>
</svg>
