<svg width="103" height="103" viewBox="0 0 103 103" fill="none" xmlns="http://www.w3.org/2000/svg">
<path d="M39.0407 86.8784V79.8897H19.9818C19.6919 79.3937 19.4478 79.0733 19.4478 79.0733C19.4478 79.0733 14.4198 72.9467 11.9326 75.434C9.44532 77.9212 14.5343 86.5885 16.8995 86.8479C17.2199 86.886 17.5098 86.886 17.7921 86.8632V86.8784H39.033H39.0407Z" fill="#00FAC8"/>
<mask id="mask0_1169_16050" style="mask-type:luminance" maskUnits="userSpaceOnUse" x="11" y="74" width="29" height="13">
<path d="M39.0407 86.8784V79.8897H19.9818C19.6919 79.3937 19.4478 79.0733 19.4478 79.0733C19.4478 79.0733 14.4198 72.9467 11.9326 75.434C9.44532 77.9212 14.5343 86.5885 16.8995 86.8479C17.2199 86.886 17.5098 86.886 17.7921 86.8632V86.8784H39.033H39.0407Z" fill="white"/>
</mask>
<g mask="url(#mask0_1169_16050)">
<path d="M29.4961 98.2159V74.8311H6.11128V98.2159H29.4961Z" fill="#2A2C2E"/>
</g>
<path d="M27.6881 85.5734C28.0799 85.5734 28.3976 85.2557 28.3976 84.8639C28.3976 84.472 28.0799 84.1543 27.6881 84.1543C27.2962 84.1543 26.9785 84.472 26.9785 84.8639C26.9785 85.2557 27.2962 85.5734 27.6881 85.5734Z" fill="#46494D"/>
<path d="M25.5972 85.5734C25.9891 85.5734 26.3068 85.2557 26.3068 84.8639C26.3068 84.472 25.9891 84.1543 25.5972 84.1543C25.2054 84.1543 24.8877 84.472 24.8877 84.8639C24.8877 85.2557 25.2054 85.5734 25.5972 85.5734Z" fill="#46494D"/>
<path d="M27.3447 36.7979L39.6361 101.352L73.092 85.6504L80.5995 53.377L27.3447 36.7979Z" fill="#508FFF"/>
<path d="M50.8213 50.0737L67.2631 11.3457L97.6214 23.4997L95.0884 41.7269L50.8213 50.0813V50.0737Z" fill="#508FFF"/>
<path d="M82.8191 32.2652L66.3418 28.3428L65.6262 31.3488L82.1036 35.2712L82.8191 32.2652Z" fill="white"/>
<path d="M63.2859 66.0689L46.8086 62.1465L46.093 65.1525L62.5704 69.0749L63.2859 66.0689Z" fill="white"/>
<path d="M32.9679 48.2884L84.3001 49.0895L50.0354 10.8116C48.3417 8.59142 46.2664 6.6535 43.8325 5.28017C37.5381 1.73239 29.6338 1.14491 22.4467 4.57824C12.429 9.35439 7.18743 20.8522 10.1554 31.5414C12.2917 39.2396 17.9452 44.8322 24.7814 47.2431C27.3983 48.1663 30.1984 48.4562 32.9679 48.2884Z" fill="#00FAC8"/>
<path d="M32.2584 44.2443C42.5062 44.2443 50.8136 35.9368 50.8136 25.689C50.8136 15.4413 42.5062 7.13379 32.2584 7.13379C22.0106 7.13379 13.7031 15.4413 13.7031 25.689C13.7031 35.9368 22.0106 44.2443 32.2584 44.2443Z" fill="#508FFF"/>
<mask id="mask1_1169_16050" style="mask-type:luminance" maskUnits="userSpaceOnUse" x="13" y="7" width="38" height="38">
<path d="M32.2584 44.2443C42.5062 44.2443 50.8136 35.9368 50.8136 25.689C50.8136 15.4413 42.5062 7.13379 32.2584 7.13379C22.0106 7.13379 13.7031 15.4413 13.7031 25.689C13.7031 35.9368 22.0106 44.2443 32.2584 44.2443Z" fill="white"/>
</mask>
<g mask="url(#mask1_1169_16050)">
<path d="M48.387 11.75L40.1012 6.21094L21.958 7.46983L13.8934 16.6025L11.8105 16.6254C11.8105 16.6254 14.2978 29.9315 21.1187 18.0826C22.0114 21.1421 24.636 27.2306 29.8699 18.4183C30.8617 21.5999 33.555 27.078 38.7431 18.0369H38.7584C39.6968 21.2795 42.6114 28.1156 48.5777 16.5033L48.387 11.7424V11.75Z" fill="#1E2021"/>
</g>
<path d="M20.4787 33.5102C23.0617 33.5102 25.1557 31.4162 25.1557 28.8332C25.1557 26.2502 23.0617 24.1562 20.4787 24.1562C17.8957 24.1562 15.8018 26.2502 15.8018 28.8332C15.8018 31.4162 17.8957 33.5102 20.4787 33.5102Z" fill="white"/>
<path d="M20.4781 30.3967C21.342 30.3967 22.0422 29.6964 22.0422 28.8326C22.0422 27.9688 21.342 27.2686 20.4781 27.2686C19.6143 27.2686 18.9141 27.9688 18.9141 28.8326C18.9141 29.6964 19.6143 30.3967 20.4781 30.3967Z" fill="#1E2021"/>
<path d="M31.7697 33.5102C34.3528 33.5102 36.4467 31.4162 36.4467 28.8332C36.4467 26.2502 34.3528 24.1562 31.7697 24.1562C29.1867 24.1562 27.0928 26.2502 27.0928 28.8332C27.0928 31.4162 29.1867 33.5102 31.7697 33.5102Z" fill="white"/>
<path d="M31.7701 30.3967C32.6339 30.3967 33.3342 29.6964 33.3342 28.8326C33.3342 27.9688 32.6339 27.2686 31.7701 27.2686C30.9063 27.2686 30.2061 27.9688 30.2061 28.8326C30.2061 29.6964 30.9063 30.3967 31.7701 30.3967Z" fill="#1E2021"/>
<path d="M26.4215 35.631C28.0058 35.631 29.2902 34.3467 29.2902 32.7623C29.2902 31.1779 28.0058 29.8936 26.4215 29.8936C24.8371 29.8936 23.5527 31.1779 23.5527 32.7623C23.5527 34.3467 24.8371 35.631 26.4215 35.631Z" fill="#00FAC8"/>
<path d="M45.6559 96.1948V89.2061H26.5971C26.3071 88.7102 26.063 88.3897 26.063 88.3897C26.063 88.3897 21.0351 82.2631 18.5478 84.7504C16.0606 87.2376 21.1495 95.9049 23.5147 96.1643C23.8351 96.2025 24.1251 96.2025 24.4074 96.1796V96.1948H45.6483H45.6559Z" fill="#00FAC8"/>
<mask id="mask2_1169_16050" style="mask-type:luminance" maskUnits="userSpaceOnUse" x="17" y="84" width="29" height="13">
<path d="M45.6559 96.1948V89.2061H26.5971C26.3071 88.7102 26.063 88.3897 26.063 88.3897C26.063 88.3897 21.0351 82.2631 18.5478 84.7504C16.0606 87.2376 21.1495 95.9049 23.5147 96.1643C23.8351 96.2025 24.1251 96.2025 24.4074 96.1796V96.1948H45.6483H45.6559Z" fill="white"/>
</mask>
<g mask="url(#mask2_1169_16050)">
<path d="M36.1113 107.532V84.1475H12.7265V107.532H36.1113Z" fill="#2A2C2E"/>
</g>
<path d="M34.3033 94.8898C34.6952 94.8898 35.0129 94.5721 35.0129 94.1803C35.0129 93.7884 34.6952 93.4707 34.3033 93.4707C33.9114 93.4707 33.5938 93.7884 33.5938 94.1803C33.5938 94.5721 33.9114 94.8898 34.3033 94.8898Z" fill="#46494D"/>
<path d="M32.2125 94.8898C32.6044 94.8898 32.922 94.5721 32.922 94.1803C32.922 93.7884 32.6044 93.4707 32.2125 93.4707C31.8206 93.4707 31.5029 93.7884 31.5029 94.1803C31.5029 94.5721 31.8206 94.8898 32.2125 94.8898Z" fill="#46494D"/>
</svg>
