<svg width="84" height="84" viewBox="0 0 84 84" fill="none" xmlns="http://www.w3.org/2000/svg">
<g filter="url(#filter0_d_3619_33410)">
<g clip-path="url(#clip0_3619_33410)">
<rect x="4" y="3" width="76" height="76" rx="38" fill="#171717"/>
<path d="M34.6777 48.7979L46.9691 113.352L80.425 97.6504L87.9326 65.377L34.6777 48.7979Z" fill="#508FFF"/>
<path d="M58.1543 62.0732L74.5962 23.3452L104.954 35.4992L102.421 53.7264L58.1543 62.0808V62.0732Z" fill="#508FFF"/>
<path d="M90.1524 44.2652L73.675 40.3428L72.9595 43.3488L89.4368 47.2712L90.1524 44.2652Z" fill="white"/>
<path d="M70.6185 78.0679L54.1411 74.1455L53.4255 77.1515L69.9029 81.0739L70.6185 78.0679Z" fill="white"/>
<path d="M40.301 60.2879L91.6331 61.089L57.3684 22.8112C55.6747 20.5909 53.5994 18.653 51.1656 17.2797C44.8711 13.7319 36.9668 13.1444 29.7797 16.5778C19.762 21.3539 14.5204 32.8518 17.4884 43.5409C19.6247 51.2392 25.2782 56.8317 32.1144 59.2426C34.7313 60.1658 37.5314 60.4558 40.301 60.2879Z" fill="#00DDA8"/>
<path d="M39.5914 56.2443C49.8392 56.2443 58.1466 47.9368 58.1466 37.689C58.1466 27.4413 49.8392 19.1338 39.5914 19.1338C29.3436 19.1338 21.0361 27.4413 21.0361 37.689C21.0361 47.9368 29.3436 56.2443 39.5914 56.2443Z" fill="#508FFF"/>
<mask id="mask0_3619_33410" style="mask-type:luminance" maskUnits="userSpaceOnUse" x="21" y="19" width="38" height="38">
<path d="M39.5914 56.2443C49.8392 56.2443 58.1466 47.9368 58.1466 37.689C58.1466 27.4413 49.8392 19.1338 39.5914 19.1338C29.3436 19.1338 21.0361 27.4413 21.0361 37.689C21.0361 47.9368 29.3436 56.2443 39.5914 56.2443Z" fill="white"/>
</mask>
<g mask="url(#mask0_3619_33410)">
<path d="M55.7202 23.7496L47.4345 18.2104L29.2912 19.4693L21.2267 28.602L19.1438 28.6249C19.1438 28.6249 21.6311 41.931 28.4519 30.0822C29.3446 33.1416 31.9692 39.2301 37.2031 30.4179C38.195 33.5994 40.8882 39.0775 46.0764 30.0364H46.0917C47.0301 33.279 49.9446 40.1151 55.911 28.5028L55.7202 23.7419V23.7496Z" fill="#171717"/>
</g>
<path d="M27.8112 45.5092C30.3943 45.5092 32.4882 43.4153 32.4882 40.8322C32.4882 38.2492 30.3943 36.1553 27.8112 36.1553C25.2282 36.1553 23.1343 38.2492 23.1343 40.8322C23.1343 43.4153 25.2282 45.5092 27.8112 45.5092Z" fill="white"/>
<path d="M27.8111 42.3967C28.675 42.3967 29.3752 41.6964 29.3752 40.8326C29.3752 39.9688 28.675 39.2686 27.8111 39.2686C26.9473 39.2686 26.2471 39.9688 26.2471 40.8326C26.2471 41.6964 26.9473 42.3967 27.8111 42.3967Z" fill="#171717"/>
<path d="M39.103 45.5092C41.686 45.5092 43.78 43.4153 43.78 40.8322C43.78 38.2492 41.686 36.1553 39.103 36.1553C36.52 36.1553 34.426 38.2492 34.426 40.8322C34.426 43.4153 36.52 45.5092 39.103 45.5092Z" fill="white"/>
<path d="M39.1031 42.3967C39.967 42.3967 40.6672 41.6964 40.6672 40.8326C40.6672 39.9688 39.967 39.2686 39.1031 39.2686C38.2393 39.2686 37.5391 39.9688 37.5391 40.8326C37.5391 41.6964 38.2393 42.3967 39.1031 42.3967Z" fill="#171717"/>
<path d="M33.7547 47.6305C35.3391 47.6305 36.6235 46.3462 36.6235 44.7618C36.6235 43.1774 35.3391 41.8931 33.7547 41.8931C32.1704 41.8931 30.886 43.1774 30.886 44.7618C30.886 46.3462 32.1704 47.6305 33.7547 47.6305Z" fill="#00DDA8"/>
</g>
<rect x="4.5" y="3.5" width="75" height="75" rx="37.5" stroke="#333333"/>
</g>
<defs>
<filter id="filter0_d_3619_33410" x="0" y="0" width="84" height="84" filterUnits="userSpaceOnUse" color-interpolation-filters="sRGB">
<feFlood flood-opacity="0" result="BackgroundImageFix"/>
<feColorMatrix in="SourceAlpha" type="matrix" values="0 0 0 0 0 0 0 0 0 0 0 0 0 0 0 0 0 0 127 0" result="hardAlpha"/>
<feOffset dy="1"/>
<feGaussianBlur stdDeviation="2"/>
<feComposite in2="hardAlpha" operator="out"/>
<feColorMatrix type="matrix" values="0 0 0 0 0 0 0 0 0 0 0 0 0 0 0 0 0 0 0.1 0"/>
<feBlend mode="normal" in2="BackgroundImageFix" result="effect1_dropShadow_3619_33410"/>
<feBlend mode="normal" in="SourceGraphic" in2="effect1_dropShadow_3619_33410" result="shape"/>
</filter>
<clipPath id="clip0_3619_33410">
<rect x="4" y="3" width="76" height="76" rx="38" fill="white"/>
</clipPath>
</defs>
</svg>
