<svg width="103" height="103" viewBox="0 0 103 103" fill="none" xmlns="http://www.w3.org/2000/svg">
<path d="M31.4635 88.4231L30.9447 81.4496L11.9393 82.8687C11.6112 82.3957 11.3442 82.0981 11.3442 82.0981C11.3442 82.0981 5.87372 76.3607 3.58484 79.0234C1.28832 81.6861 7.01054 89.9567 9.39098 90.0406C9.71143 90.0482 10.009 90.033 10.2836 89.9872V90.0024L31.4711 88.4231H31.4635Z" fill="#2A2C2E"/>
<mask id="mask0_1169_16148" style="mask-type:luminance" maskUnits="userSpaceOnUse" x="3" y="78" width="29" height="13">
<path d="M31.4635 88.4231L30.9447 81.4496L11.9393 82.8687C11.6112 82.3957 11.3442 82.0981 11.3442 82.0981C11.3442 82.0981 5.87372 76.3607 3.58484 79.0234C1.28832 81.6861 7.01054 89.9567 9.39098 90.0406C9.71143 90.0482 10.009 90.033 10.2836 89.9872V90.0024L31.4711 88.4231H31.4635Z" fill="white"/>
</mask>
<g mask="url(#mask0_1169_16148)">
<path d="M22.7801 100.44L21.043 77.1201L-2.27724 78.8572L-0.540153 102.177L22.7801 100.44Z" fill="#00FAC8"/>
</g>
<path d="M19.9957 87.965C20.3876 87.965 20.7052 87.6473 20.7052 87.2555C20.7052 86.8636 20.3876 86.5459 19.9957 86.5459C19.6038 86.5459 19.2861 86.8636 19.2861 87.2555C19.2861 87.6473 19.6038 87.965 19.9957 87.965Z" fill="#46494D"/>
<path d="M17.9058 88.1252C18.2977 88.1252 18.6154 87.8075 18.6154 87.4156C18.6154 87.0237 18.2977 86.7061 17.9058 86.7061C17.514 86.7061 17.1963 87.0237 17.1963 87.4156C17.1963 87.8075 17.514 88.1252 17.9058 88.1252Z" fill="#46494D"/>
<path d="M63.1112 23.9149L15.2734 101.63L80.6823 93.3674L87.4803 66.7857L63.1188 23.9072L63.1112 23.9149Z" fill="#FF71E2"/>
<path d="M31.624 70.9208C32.9287 70.9437 45.632 71.0963 47.3716 65.8243C47.9209 64.1686 47.6386 61.1778 46.4255 60.72C45.5786 60.3996 44.1442 61.2541 44.1442 61.9942C44.1442 63.6269 51.0872 65.809 57.4351 65.1986C63.6532 64.6035 70.6725 61.1931 70.5504 58.2023C70.4894 56.6916 68.5896 55.0589 67.2544 55.3183C66.0565 55.5548 64.9731 57.3706 65.3241 58.6906C66.1328 61.8034 75.3723 64.0466 81.5905 60.3233C84.4211 58.6295 85.9241 56.127 86.6413 54.6621" stroke="white" stroke-width="0.37037" stroke-miterlimit="10"/>
<path d="M52.1705 46.2172L101.168 30.9045L56.6491 5.27656C54.3449 3.69723 51.7661 2.50701 49.0271 1.9653C41.9391 0.569082 34.2485 2.48412 28.4957 7.99271C20.477 15.6681 19.1037 28.2265 25.2684 37.4507C29.7088 44.0961 36.8273 47.6363 44.0754 47.7812C46.8526 47.8423 49.5993 47.2395 52.1781 46.2095L52.1705 46.2172Z" fill="#00FAC8"/>
<path d="M43.6637 43.2179C53.9114 43.2179 62.2189 34.9105 62.2189 24.6627C62.2189 14.4149 53.9114 6.10742 43.6637 6.10742C33.4159 6.10742 25.1084 14.4149 25.1084 24.6627C25.1084 34.9105 33.4159 43.2179 43.6637 43.2179Z" fill="#FF71E2"/>
<mask id="mask1_1169_16148" style="mask-type:luminance" maskUnits="userSpaceOnUse" x="25" y="6" width="38" height="38">
<path d="M43.6637 43.2179C53.9114 43.2179 62.2189 34.9105 62.2189 24.6627C62.2189 14.4149 53.9114 6.10742 43.6637 6.10742C33.4159 6.10742 25.1084 14.4149 25.1084 24.6627C25.1084 34.9105 33.4159 43.2179 43.6637 43.2179Z" fill="white"/>
</mask>
<g mask="url(#mask1_1169_16148)">
<path d="M59.7923 10.7305L51.5065 5.19141L33.3632 6.4503L25.2987 15.583L23.2158 15.6059C23.2158 15.6059 25.7031 28.9119 32.524 17.0631C33.4166 20.1226 36.0412 26.211 41.2752 17.3988C42.267 20.5804 44.9603 26.0584 50.1484 17.0173H50.1637C51.1021 20.2599 54.0166 27.0961 59.983 15.4838L59.7923 10.7229V10.7305Z" fill="#1E2021"/>
</g>
<path d="M27.5496 29.0341C27.5496 29.0341 29.0603 25.2422 32.2495 25.2422C35.4387 25.2422 36.8807 29.0341 36.8807 29.0341C36.8807 29.0341 36.0414 32.9557 32.2113 32.9557C28.3813 32.9557 27.542 29.0341 27.542 29.0341H27.5496Z" fill="white"/>
<mask id="mask2_1169_16148" style="mask-type:luminance" maskUnits="userSpaceOnUse" x="27" y="25" width="10" height="8">
<path d="M27.5496 29.0341C27.5496 29.0341 29.0603 25.2422 32.2495 25.2422C35.4387 25.2422 36.8807 29.0341 36.8807 29.0341C36.8807 29.0341 36.0414 32.9557 32.2113 32.9557C28.3813 32.9557 27.542 29.0341 27.542 29.0341H27.5496Z" fill="white"/>
</mask>
<g mask="url(#mask2_1169_16148)">
<path d="M32.6688 36.2827C31.7074 28.9278 32.6688 22.2061 32.6688 22.2061L26.8474 25.7081L26.3057 30.7665L32.6688 36.2827Z" fill="#1E2021"/>
</g>
<path d="M38.994 29.0341C38.994 29.0341 40.5046 25.2422 43.6938 25.2422C46.883 25.2422 48.325 29.0341 48.325 29.0341C48.325 29.0341 47.4857 32.9557 43.6557 32.9557C39.8256 32.9557 38.9863 29.0341 38.9863 29.0341H38.994Z" fill="white"/>
<mask id="mask3_1169_16148" style="mask-type:luminance" maskUnits="userSpaceOnUse" x="38" y="25" width="11" height="8">
<path d="M38.994 29.0341C38.994 29.0341 40.5046 25.2422 43.6938 25.2422C46.883 25.2422 48.325 29.0341 48.325 29.0341C48.325 29.0341 47.4857 32.9557 43.6557 32.9557C39.8256 32.9557 38.9863 29.0341 38.9863 29.0341H38.994Z" fill="white"/>
</mask>
<g mask="url(#mask3_1169_16148)">
<path d="M44.1131 36.2827C43.1518 28.9278 44.1131 22.2061 44.1131 22.2061L38.2917 25.7081L37.75 30.7665L44.1131 36.2827Z" fill="#1E2021"/>
</g>
<path d="M37.8268 34.6037C39.4111 34.6037 40.6955 33.3193 40.6955 31.735C40.6955 30.1506 39.4111 28.8662 37.8268 28.8662C36.2424 28.8662 34.958 30.1506 34.958 31.735C34.958 33.3193 36.2424 34.6037 37.8268 34.6037Z" fill="#00FAC8"/>
<path d="M35.7588 36.3135C35.8656 38.549 37.8035 39.8918 39.1845 39.5942C40.4739 39.3196 41.6183 37.5495 41.1148 35.5811" stroke="white" stroke-width="0.37037" stroke-miterlimit="10" stroke-linecap="round"/>
<path d="M37.8267 96.0759L36.8044 89.1634L17.9516 91.9559C17.593 91.5057 17.303 91.2311 17.303 91.2311C17.303 91.2311 11.4359 85.9056 9.33771 88.7285C7.24719 91.5515 13.5416 99.3871 15.9221 99.2956C16.2425 99.2803 16.5324 99.2422 16.8071 99.1811V99.1964L37.8267 96.0835V96.0759Z" fill="#2A2C2E"/>
<mask id="mask4_1169_16148" style="mask-type:luminance" maskUnits="userSpaceOnUse" x="8" y="87" width="30" height="13">
<path d="M37.8267 96.0759L36.8044 89.1634L17.9516 91.9559C17.593 91.5057 17.303 91.2311 17.303 91.2311C17.303 91.2311 11.4359 85.9056 9.33771 88.7285C7.24719 91.5515 13.5416 99.3871 15.9221 99.2956C16.2425 99.2803 16.5324 99.2422 16.8071 99.1811V99.1964L37.8267 96.0835V96.0759Z" fill="white"/>
</mask>
<g mask="url(#mask4_1169_16148)">
<path d="M30.0385 108.693L26.6143 85.5605L3.4815 88.9847L6.9057 112.118L30.0385 108.693Z" fill="#00FAC8"/>
</g>
<path d="M26.2984 96.4572C26.6903 96.4572 27.008 96.1395 27.008 95.7476C27.008 95.3558 26.6903 95.0381 26.2984 95.0381C25.9065 95.0381 25.5889 95.3558 25.5889 95.7476C25.5889 96.1395 25.9065 96.4572 26.2984 96.4572Z" fill="#46494D"/>
<path d="M24.231 96.7629C24.6229 96.7629 24.9406 96.4452 24.9406 96.0533C24.9406 95.6614 24.6229 95.3438 24.231 95.3438C23.8392 95.3438 23.5215 95.6614 23.5215 96.0533C23.5215 96.4452 23.8392 96.7629 24.231 96.7629Z" fill="#46494D"/>
</svg>
