<svg width="84" height="84" viewBox="0 0 84 84" fill="none" xmlns="http://www.w3.org/2000/svg">
<g filter="url(#filter0_d_3619_33418)">
<g clip-path="url(#clip0_3619_33418)">
<rect x="4" y="3" width="76" height="76" rx="38" fill="#171717"/>
<path d="M106.163 34.2642L94.581 85.2301L41.2956 80.5989L52.8774 89.8689L71.5166 105.258L50.2757 115.215L41.2956 80.6065H38.9762L32.0256 59.7548L106.163 34.2642Z" fill="#6F50CB"/>
<path d="M79.5496 69.0337L57.4939 56.2998L56.2541 58.4472L78.3098 71.1811L79.5496 69.0337Z" fill="white"/>
<path d="M44.5766 61.1895L95.4433 54.2694L55.8226 21.5688C53.8084 19.6232 51.4737 18.021 48.8568 17.0368C42.1046 14.4732 34.2003 15.0836 27.6083 19.5546C18.4222 25.7803 14.966 37.9343 19.5056 48.0589C22.7711 55.3528 29.2029 60.0298 36.3213 61.3878C39.0451 61.9066 41.8604 61.7769 44.5689 61.1895H44.5766Z" fill="#00DDA8"/>
<path d="M40.0977 57.1759C50.3455 57.1759 58.653 48.8685 58.653 38.6207C58.653 28.3729 50.3455 20.0654 40.0977 20.0654C29.85 20.0654 21.5425 28.3729 21.5425 38.6207C21.5425 48.8685 29.85 57.1759 40.0977 57.1759Z" fill="#6F50CB"/>
<mask id="mask0_3619_33418" style="mask-type:luminance" maskUnits="userSpaceOnUse" x="21" y="20" width="38" height="38">
<path d="M40.0977 57.1759C50.3455 57.1759 58.653 48.8685 58.653 38.6207C58.653 28.3729 50.3455 20.0654 40.0977 20.0654C29.85 20.0654 21.5425 28.3729 21.5425 38.6207C21.5425 48.8685 29.85 57.1759 40.0977 57.1759Z" fill="white"/>
</mask>
<g mask="url(#mask0_3619_33418)">
<path d="M56.2193 24.6812L47.9335 19.1421L29.7902 20.401L21.7257 29.5336L19.6428 29.5565C19.6428 29.5565 22.1301 42.8626 28.951 31.0138C29.8436 34.0733 32.4682 40.1617 37.7022 31.3495C38.694 34.5311 41.3873 40.0091 46.5754 30.968H46.5907C47.5291 34.2106 50.4436 41.0468 56.41 29.4345L56.2193 24.6736V24.6812Z" fill="black"/>
</g>
<path d="M28.2872 37.0107H27.8752C26.0169 37.0107 24.5105 38.5172 24.5105 40.3754V43.3815C24.5105 45.2397 26.0169 46.7462 27.8752 46.7462H28.2872C30.1454 46.7462 31.6518 45.2397 31.6518 43.3815V40.3754C31.6518 38.5172 30.1454 37.0107 28.2872 37.0107Z" fill="white"/>
<path d="M30.2375 41.8713L27.3188 38.9526L24.4002 41.8713L27.3188 44.79L30.2375 41.8713Z" fill="black"/>
<path d="M38.5262 37.0107H38.1142C36.2559 37.0107 34.7495 38.5172 34.7495 40.3754V43.3815C34.7495 45.2397 36.2559 46.7462 38.1142 46.7462H38.5262C40.3844 46.7462 41.8908 45.2397 41.8908 43.3815V40.3754C41.8908 38.5172 40.3844 37.0107 38.5262 37.0107Z" fill="white"/>
<path d="M40.4758 41.8708L37.5571 38.9521L34.6385 41.8708L37.5571 44.7895L40.4758 41.8708Z" fill="black"/>
<path d="M33.0252 48.4709C34.6096 48.4709 35.894 47.1865 35.894 45.6021C35.894 44.0178 34.6096 42.7334 33.0252 42.7334C31.4409 42.7334 30.1565 44.0178 30.1565 45.6021C30.1565 47.1865 31.4409 48.4709 33.0252 48.4709Z" fill="#00DDA8"/>
</g>
<rect x="4.5" y="3.5" width="75" height="75" rx="37.5" stroke="#333333"/>
</g>
<defs>
<filter id="filter0_d_3619_33418" x="0" y="0" width="84" height="84" filterUnits="userSpaceOnUse" color-interpolation-filters="sRGB">
<feFlood flood-opacity="0" result="BackgroundImageFix"/>
<feColorMatrix in="SourceAlpha" type="matrix" values="0 0 0 0 0 0 0 0 0 0 0 0 0 0 0 0 0 0 127 0" result="hardAlpha"/>
<feOffset dy="1"/>
<feGaussianBlur stdDeviation="2"/>
<feComposite in2="hardAlpha" operator="out"/>
<feColorMatrix type="matrix" values="0 0 0 0 0 0 0 0 0 0 0 0 0 0 0 0 0 0 0.1 0"/>
<feBlend mode="normal" in2="BackgroundImageFix" result="effect1_dropShadow_3619_33418"/>
<feBlend mode="normal" in="SourceGraphic" in2="effect1_dropShadow_3619_33418" result="shape"/>
</filter>
<clipPath id="clip0_3619_33418">
<rect x="4" y="3" width="76" height="76" rx="38" fill="white"/>
</clipPath>
</defs>
</svg>
