<svg width="20" height="20" viewBox="0 0 20 20" fill="none" xmlns="http://www.w3.org/2000/svg">
<path d="M10.0003 1.6665C5.40033 1.6665 1.66699 5.39984 1.66699 9.99984C1.66699 14.5998 5.40033 18.3332 10.0003 18.3332C14.6003 18.3332 18.3337 14.5998 18.3337 9.99984C18.3337 5.39984 14.6003 1.6665 10.0003 1.6665ZM7.74199 13.5748L4.75033 10.5832C4.67317 10.506 4.61197 10.4144 4.57022 10.3136C4.52847 10.2128 4.50698 10.1048 4.50698 9.99567C4.50698 9.88656 4.52847 9.77852 4.57022 9.67772C4.61197 9.57691 4.67317 9.48532 4.75033 9.40817C4.82748 9.33102 4.91907 9.26982 5.01987 9.22807C5.12068 9.18631 5.22872 9.16482 5.33783 9.16482C5.44693 9.16482 5.55498 9.18631 5.65578 9.22807C5.75658 9.26982 5.84817 9.33102 5.92533 9.40817L8.33366 11.8082L14.067 6.07484C14.2228 5.91902 14.4341 5.83149 14.6545 5.83149C14.8748 5.83149 15.0862 5.91902 15.242 6.07484C15.3978 6.23065 15.4853 6.44198 15.4853 6.66234C15.4853 6.88269 15.3978 7.09402 15.242 7.24984L8.91699 13.5748C8.8399 13.6521 8.74832 13.7134 8.64751 13.7552C8.5467 13.797 8.43863 13.8185 8.32949 13.8185C8.22035 13.8185 8.11228 13.797 8.01147 13.7552C7.91066 13.7134 7.81909 13.6521 7.74199 13.5748Z" fill="black"/>
</svg>
