<svg width="40" height="40" viewBox="0 0 40 40" fill="none" xmlns="http://www.w3.org/2000/svg">
<path d="M0 8C0 3.58172 3.58172 0 8 0H32C36.4183 0 40 3.58172 40 8V32C40 36.4183 36.4183 40 32 40H8C3.58172 40 0 36.4183 0 32V8Z" fill="#46494D"/>
<path d="M11.4 28.4004L28.85 20.9204C29.0304 20.8435 29.1842 20.7154 29.2923 20.5518C29.4004 20.3882 29.4581 20.1965 29.4581 20.0004C29.4581 19.8043 29.4004 19.6126 29.2923 19.449C29.1842 19.2854 29.0304 19.1572 28.85 19.0804L11.4 11.6004C11.2489 11.5345 11.0838 11.5072 10.9195 11.5211C10.7552 11.535 10.597 11.5895 10.4591 11.6798C10.3212 11.7701 10.2079 11.8933 10.1295 12.0383C10.0511 12.1833 10.01 12.3455 10.01 12.5104L10 17.1204C10 17.6204 10.37 18.0504 10.87 18.1104L25 20.0004L10.87 21.8804C10.37 21.9504 10 22.3804 10 22.8804L10.01 27.4904C10.01 28.2004 10.74 28.6904 11.4 28.4004Z" fill="#F8F8F8"/>
</svg>
