<svg width="40" height="40" viewBox="0 0 40 40" fill="none" xmlns="http://www.w3.org/2000/svg">
<path d="M0 8C0 3.58172 3.58172 0 8 0H32C36.4183 0 40 3.58172 40 8V32C40 36.4183 36.4183 40 32 40H8C3.58172 40 0 36.4183 0 32V8Z" fill="#46494D"/>
<path d="M28 14H20L18.59 12.59C18.21 12.21 17.7 12 17.17 12H12C10.89 12 10.01 12.89 10.01 14L10 26C10 27.11 10.89 28 12 28H28C29.1 28 30 27.1 30 26V16C30 14.9 29.1 14 28 14ZM26 22H24V24C24 24.55 23.55 25 23 25C22.45 25 22 24.55 22 24V22H20C19.45 22 19 21.55 19 21C19 20.45 19.45 20 20 20H22V18C22 17.45 22.45 17 23 17C23.55 17 24 17.45 24 18V20H26C26.55 20 27 20.45 27 21C27 21.55 26.55 22 26 22Z" fill="#F8F8F8"/>
</svg>
