<svg width="16" height="16" viewBox="0 0 16 16" fill="none" xmlns="http://www.w3.org/2000/svg">
<path d="M13.6663 9.99967V3.33301C13.6663 2.66634 13.333 2.33301 12.6663 2.33301H3.33301C2.66634 2.33301 2.33301 2.66634 2.33301 3.33301V12.2523L3.29264 11.2926L3.36621 11.2262C3.54414 11.0805 3.76767 10.9997 3.99967 10.9997H12.6663L13.333 11.9997H3.99967L1.33301 14.6663V2.66634C1.33301 1.93301 1.93301 1.33301 2.66634 1.33301H13.333C14.0663 1.33301 14.6663 1.93301 14.6663 2.66634V10.6663C14.6663 11.3997 14.0663 11.9997 13.333 11.9997L12.6663 10.9997C13.333 10.9997 13.6663 10.6663 13.6663 9.99967Z" fill="#F8F8F8"/>
</svg>
