<svg width="24" height="24" viewBox="0 0 24 24" fill="none" xmlns="http://www.w3.org/2000/svg">
<path d="M0 8C0 3.58172 3.58172 0 8 0H16C20.4183 0 24 3.58172 24 8V16C24 20.4183 20.4183 24 16 24H8C3.58172 24 0 20.4183 0 16V8Z" fill="#46494D"/>
<path d="M12.0003 9.33366C12.7337 9.33366 13.3337 8.73366 13.3337 8.00033C13.3337 7.26699 12.7337 6.66699 12.0003 6.66699C11.267 6.66699 10.667 7.26699 10.667 8.00033C10.667 8.73366 11.267 9.33366 12.0003 9.33366ZM12.0003 10.667C11.267 10.667 10.667 11.267 10.667 12.0003C10.667 12.7337 11.267 13.3337 12.0003 13.3337C12.7337 13.3337 13.3337 12.7337 13.3337 12.0003C13.3337 11.267 12.7337 10.667 12.0003 10.667ZM12.0003 14.667C11.267 14.667 10.667 15.267 10.667 16.0003C10.667 16.7337 11.267 17.3337 12.0003 17.3337C12.7337 17.3337 13.3337 16.7337 13.3337 16.0003C13.3337 15.267 12.7337 14.667 12.0003 14.667Z" fill="#F8F8F8"/>
</svg>
