<svg width="44" height="45" viewBox="0 0 44 45" fill="none" xmlns="http://www.w3.org/2000/svg">
<rect width="44" height="45" rx="22" fill="#00FAC8"/>
<path d="M22 32.5H15C14.4696 32.5 13.9609 32.2893 13.5858 31.9142C13.2107 31.5391 13 31.0304 13 30.5L13.01 16.5C13.01 15.4 13.89 14.5 15 14.5H16V13.5C16 12.95 16.45 12.5 17 12.5C17.55 12.5 18 12.95 18 13.5V14.5H26V13.5C26 12.95 26.45 12.5 27 12.5C27.55 12.5 28 12.95 28 13.5V14.5H29C30.1 14.5 31 15.4 31 16.5V22.5H29V20.5H15V30.5H22V32.5ZM32.13 27.49L32.84 26.78C32.9327 26.6875 33.0063 26.5776 33.0564 26.4566C33.1066 26.3357 33.1324 26.206 33.1324 26.075C33.1324 25.944 33.1066 25.8143 33.0564 25.6934C33.0063 25.5724 32.9327 25.4625 32.84 25.37L32.13 24.66C32.0375 24.5673 31.9276 24.4937 31.8066 24.4436C31.6856 24.3934 31.556 24.3676 31.425 24.3676C31.294 24.3676 31.1643 24.3934 31.0434 24.4436C30.9224 24.4937 30.8125 24.5673 30.72 24.66L30.01 25.37L32.13 27.49ZM31.42 28.2L26.41 33.21C26.23 33.39 25.97 33.5 25.71 33.5H24.5C24.22 33.5 24 33.28 24 33V31.79C24 31.52 24.11 31.27 24.29 31.08L29.3 26.07L31.42 28.2Z" fill="black"/>
</svg>
