<svg width="81" height="81" viewBox="0 0 81 81" fill="none" xmlns="http://www.w3.org/2000/svg">
<g filter="url(#filter0_d_936_11332)">
<g clip-path="url(#clip0_936_11332)">
<path d="M4 19C4 10.1634 11.1634 3 20 3H61C69.8366 3 77 10.1634 77 19V60C77 68.8366 69.8366 76 61 76H20C11.1634 76 4 68.8366 4 60V19Z" fill="#2A2C2E"/>
<path d="M15.0736 91.54L20.0176 86.596L6.54365 73.1221C6.68861 72.5651 6.74202 72.1684 6.74202 72.1684C6.74202 72.1684 7.52024 64.2794 4.00298 64.2794C0.485724 64.2794 -2.04732 74.0071 -0.551907 75.8611C-0.353537 76.1129 -0.139905 76.3189 0.0660967 76.502L0.0508341 76.5173L15.0736 91.54Z" fill="#00FAC8"/>
<mask id="mask0_936_11332" style="mask-type:luminance" maskUnits="userSpaceOnUse" x="-1" y="64" width="22" height="28">
<path d="M15.0736 91.54L20.0176 86.596L6.54365 73.1221C6.68861 72.5651 6.74202 72.1684 6.74202 72.1684C6.74202 72.1684 7.52024 64.2794 4.00298 64.2794C0.485724 64.2794 -2.04732 74.0071 -0.551907 75.8611C-0.353537 76.1129 -0.139905 76.3189 0.0660967 76.502L0.0508341 76.5173L15.0736 91.54Z" fill="white"/>
</mask>
<g mask="url(#mask0_936_11332)">
<path d="M0.297445 92.811L16.833 76.2754L0.297448 59.7398L-16.2381 76.2754L0.297445 92.811Z" fill="#171819"/>
</g>
<path d="M59.1499 102.175L73.6768 69.0934L54.3128 37.6212L48.6668 59.4038L4.28528 56.9852L14.776 82.8038L45.4395 74.7317L45.4395 87.641L2.67543 82.7962L8.32135 115.894L59.1499 102.175Z" fill="#FF5858"/>
<path d="M57.0283 76.4326L57.0283 72.8009" stroke="white" stroke-width="0.37037" stroke-miterlimit="10"/>
<path d="M52.9316 72.3359L52.9316 68.7042" stroke="white" stroke-width="0.37037" stroke-miterlimit="10"/>
<path d="M48.834 68.2314L48.834 64.5997" stroke="white" stroke-width="0.37037" stroke-miterlimit="10"/>
<path d="M48.834 77.1729L48.834 73.5411" stroke="white" stroke-width="0.37037" stroke-miterlimit="10"/>
<path d="M65.2305 66.415L65.2305 62.7833" stroke="white" stroke-width="0.37037" stroke-miterlimit="10"/>
<path d="M65.2305 75.3574L65.2305 71.7257" stroke="white" stroke-width="0.37037" stroke-miterlimit="10"/>
<path d="M61.1338 71.2598L61.1338 67.6281" stroke="white" stroke-width="0.37037" stroke-miterlimit="10"/>
<path d="M57.0283 67.1631L57.0283 63.5314" stroke="white" stroke-width="0.37037" stroke-miterlimit="10"/>
<path d="M39.0839 61.5249L90.416 62.3184L56.1514 24.0405C54.4576 21.8203 52.3823 19.8824 49.9485 18.509C43.654 14.9612 35.7497 14.3738 28.5626 17.8071C18.5449 22.5832 13.3034 34.0811 16.2713 44.7778C18.4076 52.4761 24.0611 58.0687 30.8973 60.4796C33.5142 61.4028 36.3143 61.6927 39.0839 61.5249Z" fill="#00FAC8"/>
<path d="M38.9848 20.3631C28.737 20.3631 20.4295 28.6706 20.4295 38.9184C20.4295 49.1662 28.737 57.4736 38.9848 57.4736C49.2326 57.4736 57.54 49.1662 57.54 38.9184C57.54 28.6706 49.2326 20.3631 38.9848 20.3631Z" fill="#FF5858"/>
<mask id="mask1_936_11332" style="mask-type:luminance" maskUnits="userSpaceOnUse" x="20" y="20" width="38" height="38">
<path d="M38.9848 20.3631C28.737 20.3631 20.4295 28.6706 20.4295 38.9184C20.4295 49.1662 28.737 57.4736 38.9848 57.4736C49.2326 57.4736 57.54 49.1662 57.54 38.9184C57.54 28.6706 49.2326 20.3631 38.9848 20.3631Z" fill="white"/>
</mask>
<g mask="url(#mask1_936_11332)">
<path d="M55.1139 24.9863L46.8282 19.4472L28.6849 20.7061L20.6204 29.8388L18.5375 29.8617C18.5375 29.8617 21.0248 43.1677 27.8456 31.3189C28.7383 34.3784 31.3629 40.4668 36.5968 31.6546C37.5887 34.8362 40.2819 40.3142 45.4701 31.2731L45.4854 31.2731C46.4238 34.5157 49.3383 41.3519 55.3047 29.7396L55.1139 24.9787L55.1139 24.9863Z" fill="#171819"/>
</g>
<path d="M29.3711 47.6388C31.8431 46.0748 30.9733 42.115 30.8741 41.6877C30.7978 41.3673 29.8517 37.5449 27.2882 37.2397C25.0069 36.965 22.8325 39.6506 22.4891 42.1531C22.2603 43.8164 22.7409 46.1816 24.6865 47.41C25.9454 48.2111 27.8909 48.5773 29.3711 47.6388Z" fill="white"/>
<mask id="mask2_936_11332" style="mask-type:luminance" maskUnits="userSpaceOnUse" x="22" y="37" width="10" height="12">
<path d="M29.3711 47.6388C31.8431 46.0748 30.9733 42.115 30.8741 41.6877C30.7978 41.3673 29.8517 37.5449 27.2882 37.2397C25.0069 36.965 22.8325 39.6506 22.4891 42.1531C22.2603 43.8164 22.7409 46.1816 24.6865 47.41C25.9454 48.2111 27.8909 48.5773 29.3711 47.6388Z" fill="white"/>
</mask>
<g mask="url(#mask2_936_11332)">
<path d="M22.214 40.9631C22.1148 42.4204 22.9693 44.3507 24.6097 44.6483C26.2577 44.9458 27.6692 43.4046 28.1422 42.1C28.8136 40.2612 28.0354 37.8045 26.4942 37.3085C24.7776 36.7592 22.3666 38.7353 22.214 40.9631Z" fill="#171819"/>
</g>
<path d="M41.1513 47.6388C43.6233 46.0748 42.7536 42.115 42.6544 41.6877C42.5781 41.3673 41.632 37.5449 39.0684 37.2397C36.7872 36.965 34.6127 39.6506 34.2694 42.1531C34.0405 43.8164 34.5212 46.1816 36.4667 47.41C37.7256 48.2111 39.6712 48.5773 41.1513 47.6388Z" fill="white"/>
<mask id="mask3_936_11332" style="mask-type:luminance" maskUnits="userSpaceOnUse" x="34" y="37" width="9" height="12">
<path d="M41.1513 47.6388C43.6233 46.0748 42.7536 42.115 42.6544 41.6877C42.5781 41.3673 41.632 37.5449 39.0684 37.2397C36.7872 36.965 34.6127 39.6506 34.2694 42.1531C34.0405 43.8164 34.5212 46.1816 36.4667 47.41C37.7256 48.2111 39.6712 48.5773 41.1513 47.6388Z" fill="white"/>
</mask>
<g mask="url(#mask3_936_11332)">
<path d="M33.9943 40.9631C33.8951 42.4204 34.7496 44.3507 36.39 44.6483C38.038 44.9458 39.4495 43.4046 39.9225 42.1C40.5939 40.2612 39.8157 37.8045 38.2745 37.3085C36.5578 36.7592 34.1469 38.7353 33.9943 40.9631Z" fill="#171819"/>
</g>
<path d="M32.5375 43.076C30.9531 43.076 29.6688 44.3604 29.6688 45.9447C29.6688 47.5291 30.9531 48.8135 32.5375 48.8135C34.1219 48.8135 35.4063 47.5291 35.4063 45.9447C35.4063 44.3604 34.1219 43.076 32.5375 43.076Z" fill="#00FAC8"/>
</g>
</g>
<defs>
<filter id="filter0_d_936_11332" x="0" y="0" width="81" height="81" filterUnits="userSpaceOnUse" color-interpolation-filters="sRGB">
<feFlood flood-opacity="0" result="BackgroundImageFix"/>
<feColorMatrix in="SourceAlpha" type="matrix" values="0 0 0 0 0 0 0 0 0 0 0 0 0 0 0 0 0 0 127 0" result="hardAlpha"/>
<feOffset dy="1"/>
<feGaussianBlur stdDeviation="2"/>
<feComposite in2="hardAlpha" operator="out"/>
<feColorMatrix type="matrix" values="0 0 0 0 0 0 0 0 0 0 0 0 0 0 0 0 0 0 0.1 0"/>
<feBlend mode="normal" in2="BackgroundImageFix" result="effect1_dropShadow_936_11332"/>
<feBlend mode="normal" in="SourceGraphic" in2="effect1_dropShadow_936_11332" result="shape"/>
</filter>
<clipPath id="clip0_936_11332">
<path d="M4 19C4 10.1634 11.1634 3 20 3H61C69.8366 3 77 10.1634 77 19V60C77 68.8366 69.8366 76 61 76H20C11.1634 76 4 68.8366 4 60V19Z" fill="white"/>
</clipPath>
</defs>
</svg>
