<svg width="81" height="81" viewBox="0 0 81 81" fill="none" xmlns="http://www.w3.org/2000/svg">
<g filter="url(#filter0_d_936_11330)">
<g clip-path="url(#clip0_936_11330)">
<path d="M4 19C4 10.1634 11.1634 3 20 3H61C69.8366 3 77 10.1634 77 19V60C77 68.8366 69.8366 76 61 76H20C11.1634 76 4 68.8366 4 60V19Z" fill="#2A2C2E"/>
<path d="M33.6777 47.7979L45.9691 112.352L79.425 96.6504L86.9326 64.377L33.6777 47.7979Z" fill="#508FFF"/>
<path d="M57.1543 61.0737L73.5962 22.3457L103.954 34.4997L101.421 52.7269L57.1543 61.0813V61.0737Z" fill="#508FFF"/>
<path d="M89.1521 43.2652L72.6748 39.3428L71.9592 42.3488L88.4366 46.2712L89.1521 43.2652Z" fill="white"/>
<path d="M69.6189 77.0689L53.1416 73.1465L52.426 76.1525L68.9034 80.0749L69.6189 77.0689Z" fill="white"/>
<path d="M39.301 59.2884L90.6331 60.0895L56.3684 21.8116C54.6747 19.5914 52.5994 17.6535 50.1656 16.2802C43.8711 12.7324 35.9668 12.1449 28.7797 15.5782C18.762 20.3544 13.5204 31.8522 16.4884 42.5414C18.6247 50.2396 24.2782 55.8322 31.1144 58.2431C33.7313 59.1663 36.5314 59.4562 39.301 59.2884Z" fill="#00FAC8"/>
<path d="M38.5914 55.2443C48.8392 55.2443 57.1467 46.9368 57.1467 36.689C57.1467 26.4413 48.8392 18.1338 38.5914 18.1338C28.3436 18.1338 20.0361 26.4413 20.0361 36.689C20.0361 46.9368 28.3436 55.2443 38.5914 55.2443Z" fill="#508FFF"/>
<mask id="mask0_936_11330" style="mask-type:luminance" maskUnits="userSpaceOnUse" x="20" y="18" width="38" height="38">
<path d="M38.5914 55.2443C48.8392 55.2443 57.1467 46.9368 57.1467 36.689C57.1467 26.4413 48.8392 18.1338 38.5914 18.1338C28.3436 18.1338 20.0361 26.4413 20.0361 36.689C20.0361 46.9368 28.3436 55.2443 38.5914 55.2443Z" fill="white"/>
</mask>
<g mask="url(#mask0_936_11330)">
<path d="M54.72 22.75L46.4342 17.2109L28.291 18.4698L20.2264 27.6025L18.1436 27.6254C18.1436 27.6254 20.6308 40.9315 27.4517 29.0826C28.3444 32.1421 30.969 38.2306 36.2029 29.4183C37.1947 32.5999 39.888 38.078 45.0761 29.0369H45.0914C46.0299 32.2795 48.9444 39.1156 54.9107 27.5033L54.72 22.7424V22.75Z" fill="#171819"/>
</g>
<path d="M26.8117 44.5102C29.3947 44.5102 31.4887 42.4162 31.4887 39.8332C31.4887 37.2502 29.3947 35.1562 26.8117 35.1562C24.2287 35.1562 22.1348 37.2502 22.1348 39.8332C22.1348 42.4162 24.2287 44.5102 26.8117 44.5102Z" fill="white"/>
<path d="M26.8111 41.3967C27.675 41.3967 28.3752 40.6964 28.3752 39.8326C28.3752 38.9688 27.675 38.2686 26.8111 38.2686C25.9473 38.2686 25.2471 38.9688 25.2471 39.8326C25.2471 40.6964 25.9473 41.3967 26.8111 41.3967Z" fill="#171819"/>
<path d="M38.1027 44.5102C40.6858 44.5102 42.7797 42.4162 42.7797 39.8332C42.7797 37.2502 40.6858 35.1562 38.1027 35.1562C35.5197 35.1562 33.4258 37.2502 33.4258 39.8332C33.4258 42.4162 35.5197 44.5102 38.1027 44.5102Z" fill="white"/>
<path d="M38.1031 41.3967C38.967 41.3967 39.6672 40.6964 39.6672 39.8326C39.6672 38.9688 38.967 38.2686 38.1031 38.2686C37.2393 38.2686 36.5391 38.9688 36.5391 39.8326C36.5391 40.6964 37.2393 41.3967 38.1031 41.3967Z" fill="#171819"/>
<path d="M32.7545 46.631C34.3388 46.631 35.6232 45.3467 35.6232 43.7623C35.6232 42.1779 34.3388 40.8936 32.7545 40.8936C31.1701 40.8936 29.8857 42.1779 29.8857 43.7623C29.8857 45.3467 31.1701 46.631 32.7545 46.631Z" fill="#00FAC8"/>
</g>
</g>
<defs>
<filter id="filter0_d_936_11330" x="0" y="0" width="81" height="81" filterUnits="userSpaceOnUse" color-interpolation-filters="sRGB">
<feFlood flood-opacity="0" result="BackgroundImageFix"/>
<feColorMatrix in="SourceAlpha" type="matrix" values="0 0 0 0 0 0 0 0 0 0 0 0 0 0 0 0 0 0 127 0" result="hardAlpha"/>
<feOffset dy="1"/>
<feGaussianBlur stdDeviation="2"/>
<feComposite in2="hardAlpha" operator="out"/>
<feColorMatrix type="matrix" values="0 0 0 0 0 0 0 0 0 0 0 0 0 0 0 0 0 0 0.1 0"/>
<feBlend mode="normal" in2="BackgroundImageFix" result="effect1_dropShadow_936_11330"/>
<feBlend mode="normal" in="SourceGraphic" in2="effect1_dropShadow_936_11330" result="shape"/>
</filter>
<clipPath id="clip0_936_11330">
<path d="M4 19C4 10.1634 11.1634 3 20 3H61C69.8366 3 77 10.1634 77 19V60C77 68.8366 69.8366 76 61 76H20C11.1634 76 4 68.8366 4 60V19Z" fill="white"/>
</clipPath>
</defs>
</svg>
