<svg width="20" height="20" viewBox="0 0 20 20" fill="none" xmlns="http://www.w3.org/2000/svg">
<path d="M10.0007 3.3335C6.31398 3.3335 3.33398 6.3135 3.33398 10.0002C3.33398 13.6868 6.31398 16.6668 10.0007 16.6668C13.6873 16.6668 16.6673 13.6868 16.6673 10.0002C16.6673 6.3135 13.6873 3.3335 10.0007 3.3335ZM12.8673 12.8668C12.8056 12.9286 12.7324 12.9777 12.6517 13.0111C12.5711 13.0446 12.4846 13.0618 12.3973 13.0618C12.31 13.0618 12.2235 13.0446 12.1429 13.0111C12.0623 12.9777 11.989 12.9286 11.9273 12.8668L10.0007 10.9402L8.07398 12.8668C7.94933 12.9915 7.78027 13.0615 7.60398 13.0615C7.4277 13.0615 7.25864 12.9915 7.13398 12.8668C7.00933 12.7422 6.9393 12.5731 6.9393 12.3968C6.9393 12.3095 6.9565 12.2231 6.9899 12.1425C7.0233 12.0618 7.07226 11.9886 7.13398 11.9268L9.06065 10.0002L7.13398 8.0735C7.00933 7.94884 6.9393 7.77978 6.9393 7.6035C6.9393 7.42721 7.00933 7.25815 7.13398 7.1335C7.25864 7.00884 7.4277 6.93882 7.60398 6.93882C7.78027 6.93882 7.94933 7.00884 8.07398 7.1335L10.0007 9.06016L11.9273 7.1335C11.989 7.07177 12.0623 7.02281 12.143 6.98941C12.2236 6.95601 12.31 6.93882 12.3973 6.93882C12.4846 6.93882 12.571 6.95601 12.6517 6.98941C12.7323 7.02281 12.8056 7.07177 12.8673 7.1335C12.929 7.19522 12.978 7.26849 13.0114 7.34913C13.0448 7.42978 13.062 7.51621 13.062 7.6035C13.062 7.69078 13.0448 7.77722 13.0114 7.85786C12.978 7.9385 12.929 8.01177 12.8673 8.0735L10.9407 10.0002L12.8673 11.9268C13.1207 12.1802 13.1207 12.6068 12.8673 12.8668Z" fill="#46494D"/>
</svg>
