<svg width="81" height="81" viewBox="0 0 81 81" fill="none" xmlns="http://www.w3.org/2000/svg">
<g filter="url(#filter0_d_936_11333)">
<g clip-path="url(#clip0_936_11333)">
<path d="M4 19C4 10.1634 11.1634 3 20 3H61C69.8366 3 77 10.1634 77 19V60C77 68.8366 69.8366 76 61 76H20C11.1634 76 4 68.8366 4 60V19Z" fill="#2A2C2E"/>
<path d="M105.163 33.2646L93.5807 84.2306L40.2954 79.5994L51.8772 88.8694L70.5164 104.258L49.2755 114.215L40.2954 79.607H37.976L31.0254 58.7552L105.163 33.2646Z" fill="#6F50CB"/>
<path d="M78.5498 68.0337L56.4941 55.2998L55.2543 57.4472L77.31 70.1811L78.5498 68.0337Z" fill="white"/>
<path d="M43.5768 60.1895L94.4436 53.2694L54.8229 20.5688C52.8087 18.6232 50.474 17.021 47.857 16.0368C41.1048 13.4732 33.2005 14.0836 26.6085 18.5546C17.4224 24.7803 13.9662 36.9343 18.5058 47.0589C21.7713 54.3528 28.2031 59.0298 35.3216 60.3878C38.0453 60.9066 40.8607 60.7769 43.5692 60.1895H43.5768Z" fill="#00FAC8"/>
<path d="M39.0982 56.1759C49.346 56.1759 57.6535 47.8685 57.6535 37.6207C57.6535 27.3729 49.346 19.0654 39.0982 19.0654C28.8504 19.0654 20.543 27.3729 20.543 37.6207C20.543 47.8685 28.8504 56.1759 39.0982 56.1759Z" fill="#6F50CB"/>
<mask id="mask0_936_11333" style="mask-type:luminance" maskUnits="userSpaceOnUse" x="20" y="19" width="38" height="38">
<path d="M39.0982 56.1759C49.346 56.1759 57.6535 47.8685 57.6535 37.6207C57.6535 27.3729 49.346 19.0654 39.0982 19.0654C28.8504 19.0654 20.543 27.3729 20.543 37.6207C20.543 47.8685 28.8504 56.1759 39.0982 56.1759Z" fill="white"/>
</mask>
<g mask="url(#mask0_936_11333)">
<path d="M55.22 23.6817L46.9342 18.1426L28.791 19.4015L20.7264 28.5341L18.6436 28.557C18.6436 28.557 21.1308 41.8631 27.9517 30.0143C28.8444 33.0738 31.469 39.1622 36.7029 30.35C37.6947 33.5315 40.388 39.0096 45.5761 29.9685H45.5914C46.5299 33.2111 49.4444 40.0472 55.4107 28.4349L55.22 23.6741V23.6817Z" fill="black"/>
</g>
<path d="M27.2874 36.0107H26.8754C25.0172 36.0107 23.5107 37.5172 23.5107 39.3754V42.3815C23.5107 44.2397 25.0172 45.7461 26.8754 45.7461H27.2874C29.1457 45.7461 30.6521 44.2397 30.6521 42.3815V39.3754C30.6521 37.5172 29.1457 36.0107 27.2874 36.0107Z" fill="white"/>
<path d="M29.238 40.8708L26.3193 37.9521L23.4007 40.8708L26.3193 43.7895L29.238 40.8708Z" fill="black"/>
<path d="M37.5276 36.0107H37.1156C35.2574 36.0107 33.751 37.5172 33.751 39.3754V42.3815C33.751 44.2397 35.2574 45.7461 37.1156 45.7461H37.5276C39.3859 45.7461 40.8923 44.2397 40.8923 42.3815V39.3754C40.8923 37.5172 39.3859 36.0107 37.5276 36.0107Z" fill="white"/>
<path d="M39.4773 40.8708L36.5586 37.9521L33.6399 40.8708L36.5586 43.7895L39.4773 40.8708Z" fill="black"/>
<path d="M32.026 47.4709C33.6103 47.4709 34.8947 46.1865 34.8947 44.6021C34.8947 43.0178 33.6103 41.7334 32.026 41.7334C30.4416 41.7334 29.1572 43.0178 29.1572 44.6021C29.1572 46.1865 30.4416 47.4709 32.026 47.4709Z" fill="#00FAC8"/>
</g>
</g>
<defs>
<filter id="filter0_d_936_11333" x="0" y="0" width="81" height="81" filterUnits="userSpaceOnUse" color-interpolation-filters="sRGB">
<feFlood flood-opacity="0" result="BackgroundImageFix"/>
<feColorMatrix in="SourceAlpha" type="matrix" values="0 0 0 0 0 0 0 0 0 0 0 0 0 0 0 0 0 0 127 0" result="hardAlpha"/>
<feOffset dy="1"/>
<feGaussianBlur stdDeviation="2"/>
<feComposite in2="hardAlpha" operator="out"/>
<feColorMatrix type="matrix" values="0 0 0 0 0 0 0 0 0 0 0 0 0 0 0 0 0 0 0.1 0"/>
<feBlend mode="normal" in2="BackgroundImageFix" result="effect1_dropShadow_936_11333"/>
<feBlend mode="normal" in="SourceGraphic" in2="effect1_dropShadow_936_11333" result="shape"/>
</filter>
<clipPath id="clip0_936_11333">
<path d="M4 19C4 10.1634 11.1634 3 20 3H61C69.8366 3 77 10.1634 77 19V60C77 68.8366 69.8366 76 61 76H20C11.1634 76 4 68.8366 4 60V19Z" fill="white"/>
</clipPath>
</defs>
</svg>
