<svg width="84" height="84" viewBox="0 0 84 84" fill="none" xmlns="http://www.w3.org/2000/svg">
<g filter="url(#filter0_d_3619_33025)">
<g clip-path="url(#clip0_3619_33025)">
<rect x="4" y="3" width="76" height="76" rx="38" fill="#2F2F2F"/>
<path d="M16.0735 92.5398L21.0175 87.5958L7.54353 74.1219C7.68849 73.5649 7.7419 73.1682 7.7419 73.1682C7.7419 73.1682 8.52012 65.2791 5.00286 65.2791C1.4856 65.2791 -1.04744 75.0069 0.447971 76.8609C0.646341 77.1127 0.859973 77.3187 1.06597 77.5018L1.05071 77.5171L16.0735 92.5398Z" fill="#00DDA8"/>
<mask id="mask0_3619_33025" style="mask-type:luminance" maskUnits="userSpaceOnUse" x="0" y="65" width="22" height="28">
<path d="M16.0735 92.5398L21.0175 87.5958L7.54353 74.1219C7.68849 73.5649 7.7419 73.1682 7.7419 73.1682C7.7419 73.1682 8.52012 65.2791 5.00286 65.2791C1.4856 65.2791 -1.04744 75.0069 0.447971 76.8609C0.646341 77.1127 0.859973 77.3187 1.06597 77.5018L1.05071 77.5171L16.0735 92.5398Z" fill="white"/>
</mask>
<g mask="url(#mask0_3619_33025)">
<path d="M1.29732 93.8114L17.8329 77.2759L1.29733 60.7403L-15.2382 77.2759L1.29732 93.8114Z" fill="#171717"/>
</g>
<path d="M60.1498 103.175L74.6766 70.0934L55.3126 38.6212L49.6667 60.4038L5.28516 57.9852L15.7759 83.8038L46.4394 75.7317L46.4394 88.641L3.67531 83.7962L9.32124 116.894L60.1498 103.175Z" fill="#FF5858"/>
<path d="M62.1334 81.53L62.1334 77.8983" stroke="white" stroke-width="0.37037" stroke-miterlimit="10"/>
<path d="M58.0287 77.4331L58.0287 73.8014" stroke="white" stroke-width="0.37037" stroke-miterlimit="10"/>
<path d="M53.9315 73.3359L53.9315 69.7042" stroke="white" stroke-width="0.37037" stroke-miterlimit="10"/>
<path d="M49.8345 69.2312L49.8345 65.5995" stroke="white" stroke-width="0.37037" stroke-miterlimit="10"/>
<path d="M53.9315 82.2703L53.9315 78.6386" stroke="white" stroke-width="0.37037" stroke-miterlimit="10"/>
<path d="M49.8345 78.1731L49.8345 74.5414" stroke="white" stroke-width="0.37037" stroke-miterlimit="10"/>
<path d="M66.2305 67.4153L66.2305 63.7836" stroke="white" stroke-width="0.37037" stroke-miterlimit="10"/>
<path d="M66.2305 76.3572L66.2305 72.7255" stroke="white" stroke-width="0.37037" stroke-miterlimit="10"/>
<path d="M62.1334 72.2603L62.1334 68.6286" stroke="white" stroke-width="0.37037" stroke-miterlimit="10"/>
<path d="M58.0287 68.1631L58.0287 64.5314" stroke="white" stroke-width="0.37037" stroke-miterlimit="10"/>
<path d="M40.0839 62.5249L91.416 63.3184L57.1514 25.0405C55.4576 22.8203 53.3823 20.8824 50.9485 19.509C44.654 15.9612 36.7497 15.3738 29.5626 18.8071C19.5449 23.5832 14.3033 35.0811 17.2713 45.7778C19.4076 53.4761 25.0611 59.0687 31.8973 61.4796C34.5142 62.4028 37.3143 62.6927 40.0839 62.5249Z" fill="#00DDA8"/>
<path d="M39.9848 21.3629C29.737 21.3629 21.4295 29.6703 21.4295 39.9181C21.4295 50.1659 29.737 58.4734 39.9848 58.4734C50.2326 58.4734 58.54 50.1659 58.54 39.9181C58.54 29.6703 50.2326 21.3629 39.9848 21.3629Z" fill="#FF5858"/>
<mask id="mask1_3619_33025" style="mask-type:luminance" maskUnits="userSpaceOnUse" x="21" y="21" width="38" height="38">
<path d="M39.9848 21.3629C29.737 21.3629 21.4295 29.6703 21.4295 39.9181C21.4295 50.1659 29.737 58.4734 39.9848 58.4734C50.2326 58.4734 58.54 50.1659 58.54 39.9181C58.54 29.6703 50.2326 21.3629 39.9848 21.3629Z" fill="white"/>
</mask>
<g mask="url(#mask1_3619_33025)">
<path d="M56.1137 25.9863L47.8279 20.4472L29.6847 21.7061L21.6201 30.8388L19.5373 30.8617C19.5373 30.8617 22.0245 44.1677 28.8454 32.3189C29.7381 35.3784 32.3627 41.4668 37.5966 32.6546C38.5884 35.8362 41.2817 41.3142 46.4699 32.2731L46.4851 32.2731C47.4236 35.5157 50.3381 42.3519 56.3044 30.7396L56.1137 25.9787L56.1137 25.9863Z" fill="#171717"/>
</g>
<path d="M30.3713 48.6388C32.8433 47.0748 31.9735 43.115 31.8743 42.6877C31.7981 42.3673 30.852 38.5449 28.2884 38.2397C26.0072 37.965 23.8327 40.6506 23.4894 43.1531C23.2605 44.8164 23.7412 47.1816 25.6867 48.41C26.9456 49.2111 28.8912 49.5773 30.3713 48.6388Z" fill="white"/>
<mask id="mask2_3619_33025" style="mask-type:luminance" maskUnits="userSpaceOnUse" x="23" y="38" width="10" height="12">
<path d="M30.3713 48.6388C32.8433 47.0748 31.9735 43.115 31.8743 42.6877C31.7981 42.3673 30.852 38.5449 28.2884 38.2397C26.0072 37.965 23.8327 40.6506 23.4894 43.1531C23.2605 44.8164 23.7412 47.1816 25.6867 48.41C26.9456 49.2111 28.8912 49.5773 30.3713 48.6388Z" fill="white"/>
</mask>
<g mask="url(#mask2_3619_33025)">
<path d="M23.2147 41.9629C23.1155 43.4202 23.9701 45.3505 25.6104 45.648C27.2584 45.9456 28.6699 44.4044 29.143 43.0997C29.8144 41.261 29.0361 38.8042 27.495 38.3083C25.7783 37.759 23.3673 39.735 23.2147 41.9629Z" fill="#171717"/>
</g>
<path d="M42.1516 48.6388C44.6236 47.0748 43.7538 43.115 43.6546 42.6877C43.5783 42.3673 42.6322 38.5449 40.0687 38.2397C37.7874 37.965 35.613 40.6506 35.2697 43.1531C35.0408 44.8164 35.5214 47.1816 37.467 48.41C38.7259 49.2111 40.6714 49.5773 42.1516 48.6388Z" fill="white"/>
<mask id="mask3_3619_33025" style="mask-type:luminance" maskUnits="userSpaceOnUse" x="35" y="38" width="9" height="12">
<path d="M42.1516 48.6388C44.6236 47.0748 43.7538 43.115 43.6546 42.6877C43.5783 42.3673 42.6322 38.5449 40.0687 38.2397C37.7874 37.965 35.613 40.6506 35.2697 43.1531C35.0408 44.8164 35.5214 47.1816 37.467 48.41C38.7259 49.2111 40.6714 49.5773 42.1516 48.6388Z" fill="white"/>
</mask>
<g mask="url(#mask3_3619_33025)">
<path d="M34.995 41.9629C34.8958 43.4202 35.7503 45.3505 37.3907 45.648C39.0387 45.9456 40.4502 44.4044 40.9232 43.0997C41.5946 41.261 40.8164 38.8042 39.2752 38.3083C37.5586 37.759 35.1476 39.735 34.995 41.9629Z" fill="#171717"/>
</g>
<path d="M33.5376 44.0765C31.9533 44.0765 30.6689 45.3609 30.6689 46.9452C30.6689 48.5296 31.9533 49.814 33.5376 49.814C35.122 49.814 36.4064 48.5296 36.4064 46.9452C36.4064 45.3609 35.122 44.0765 33.5376 44.0765Z" fill="#00DDA8"/>
</g>
<rect x="4.5" y="3.5" width="75" height="75" rx="37.5" stroke="#333333"/>
</g>
<defs>
<filter id="filter0_d_3619_33025" x="0" y="0" width="84" height="84" filterUnits="userSpaceOnUse" color-interpolation-filters="sRGB">
<feFlood flood-opacity="0" result="BackgroundImageFix"/>
<feColorMatrix in="SourceAlpha" type="matrix" values="0 0 0 0 0 0 0 0 0 0 0 0 0 0 0 0 0 0 127 0" result="hardAlpha"/>
<feOffset dy="1"/>
<feGaussianBlur stdDeviation="2"/>
<feComposite in2="hardAlpha" operator="out"/>
<feColorMatrix type="matrix" values="0 0 0 0 0 0 0 0 0 0 0 0 0 0 0 0 0 0 0.1 0"/>
<feBlend mode="normal" in2="BackgroundImageFix" result="effect1_dropShadow_3619_33025"/>
<feBlend mode="normal" in="SourceGraphic" in2="effect1_dropShadow_3619_33025" result="shape"/>
</filter>
<clipPath id="clip0_3619_33025">
<rect x="4" y="3" width="76" height="76" rx="38" fill="white"/>
</clipPath>
</defs>
</svg>
