<svg width="84" height="84" viewBox="0 0 84 84" fill="none" xmlns="http://www.w3.org/2000/svg">
<g filter="url(#filter0_d_3619_33021)">
<g clip-path="url(#clip0_3619_33021)">
<rect x="4" y="3" width="76" height="76" rx="38" fill="#2F2F2F"/>
<path d="M34.6777 48.7979L46.9691 113.352L80.425 97.6504L87.9326 65.377L34.6777 48.7979Z" fill="#508FFF"/>
<path d="M58.1541 62.0732L74.5959 23.3452L104.954 35.4992L102.421 53.7264L58.1541 62.0808V62.0732Z" fill="#508FFF"/>
<path d="M90.1521 44.2649L73.6748 40.3425L72.9592 43.3485L89.4366 47.271L90.1521 44.2649Z" fill="white"/>
<path d="M70.6183 78.0679L54.141 74.1455L53.4254 77.1515L69.9028 81.0739L70.6183 78.0679Z" fill="white"/>
<path d="M40.3008 60.2879L91.633 61.089L57.3683 22.8112C55.6745 20.5909 53.5993 18.653 51.1654 17.2797C44.871 13.7319 36.9667 13.1444 29.7796 16.5778C19.7619 21.3539 14.5203 32.8518 17.4882 43.5409C19.6245 51.2392 25.2781 56.8317 32.1142 59.2426C34.7312 60.1658 37.5313 60.4558 40.3008 60.2879Z" fill="#00DDA8"/>
<path d="M39.5911 56.2441C49.8389 56.2441 58.1464 47.9366 58.1464 37.6888C58.1464 27.441 49.8389 19.1335 39.5911 19.1335C29.3434 19.1335 21.0359 27.441 21.0359 37.6888C21.0359 47.9366 29.3434 56.2441 39.5911 56.2441Z" fill="#508FFF"/>
<mask id="mask0_3619_33021" style="mask-type:luminance" maskUnits="userSpaceOnUse" x="21" y="19" width="38" height="38">
<path d="M39.5911 56.2441C49.8389 56.2441 58.1464 47.9366 58.1464 37.6888C58.1464 27.441 49.8389 19.1335 39.5911 19.1335C29.3434 19.1335 21.0359 27.441 21.0359 37.6888C21.0359 47.9366 29.3434 56.2441 39.5911 56.2441Z" fill="white"/>
</mask>
<g mask="url(#mask0_3619_33021)">
<path d="M55.7201 23.7493L47.4343 18.2102L29.2911 19.4691L21.2266 28.6018L19.1437 28.6247C19.1437 28.6247 21.6309 41.9307 28.4518 30.0819C29.3445 33.1414 31.9691 39.2298 37.203 30.4176C38.1949 33.5992 40.8881 39.0772 46.0763 30.0361H46.0915C47.03 33.2787 49.9445 40.1149 55.9109 28.5026L55.7201 23.7417V23.7493Z" fill="#171717"/>
</g>
<path d="M27.811 45.5094C30.394 45.5094 32.488 43.4155 32.488 40.8325C32.488 38.2495 30.394 36.1555 27.811 36.1555C25.228 36.1555 23.134 38.2495 23.134 40.8325C23.134 43.4155 25.228 45.5094 27.811 45.5094Z" fill="white"/>
<path d="M27.811 42.3965C28.6748 42.3965 29.3751 41.6962 29.3751 40.8324C29.3751 39.9686 28.6748 39.2683 27.811 39.2683C26.9472 39.2683 26.2469 39.9686 26.2469 40.8324C26.2469 41.6962 26.9472 42.3965 27.811 42.3965Z" fill="#171717"/>
<path d="M39.1029 45.5094C41.6859 45.5094 43.7798 43.4155 43.7798 40.8325C43.7798 38.2495 41.6859 36.1555 39.1029 36.1555C36.5199 36.1555 34.4259 38.2495 34.4259 40.8325C34.4259 43.4155 36.5199 45.5094 39.1029 45.5094Z" fill="white"/>
<path d="M39.1029 42.3965C39.9667 42.3965 40.667 41.6962 40.667 40.8324C40.667 39.9686 39.9667 39.2683 39.1029 39.2683C38.2391 39.2683 37.5388 39.9686 37.5388 40.8324C37.5388 41.6962 38.2391 42.3965 39.1029 42.3965Z" fill="#171717"/>
<path d="M33.7546 47.6303C35.339 47.6303 36.6233 46.3459 36.6233 44.7616C36.6233 43.1772 35.339 41.8928 33.7546 41.8928C32.1702 41.8928 30.8859 43.1772 30.8859 44.7616C30.8859 46.3459 32.1702 47.6303 33.7546 47.6303Z" fill="#00DDA8"/>
</g>
<rect x="4.5" y="3.5" width="75" height="75" rx="37.5" stroke="#333333"/>
</g>
<defs>
<filter id="filter0_d_3619_33021" x="0" y="0" width="84" height="84" filterUnits="userSpaceOnUse" color-interpolation-filters="sRGB">
<feFlood flood-opacity="0" result="BackgroundImageFix"/>
<feColorMatrix in="SourceAlpha" type="matrix" values="0 0 0 0 0 0 0 0 0 0 0 0 0 0 0 0 0 0 127 0" result="hardAlpha"/>
<feOffset dy="1"/>
<feGaussianBlur stdDeviation="2"/>
<feComposite in2="hardAlpha" operator="out"/>
<feColorMatrix type="matrix" values="0 0 0 0 0 0 0 0 0 0 0 0 0 0 0 0 0 0 0.1 0"/>
<feBlend mode="normal" in2="BackgroundImageFix" result="effect1_dropShadow_3619_33021"/>
<feBlend mode="normal" in="SourceGraphic" in2="effect1_dropShadow_3619_33021" result="shape"/>
</filter>
<clipPath id="clip0_3619_33021">
<rect x="4" y="3" width="76" height="76" rx="38" fill="white"/>
</clipPath>
</defs>
</svg>
