<svg width="81" height="81" viewBox="0 0 81 81" fill="none" xmlns="http://www.w3.org/2000/svg">
<g filter="url(#filter0_d_936_11331)">
<g clip-path="url(#clip0_936_11331)">
<path d="M4 19C4 10.1634 11.1634 3 20 3H61C69.8366 3 77 10.1634 77 19V60C77 68.8366 69.8366 76 61 76H20C11.1634 76 4 68.8366 4 60V19Z" fill="#2A2C2E"/>
<path d="M58.1112 34.9149L10.2734 112.63L75.6823 104.367L82.4803 77.7857L58.1188 34.9072L58.1112 34.9149Z" fill="#D968D3"/>
<path d="M26.624 81.9208C27.9287 81.9437 40.632 82.0963 42.3716 76.8243C42.9209 75.1686 42.6386 72.1778 41.4255 71.72C40.5786 71.3996 39.1442 72.2541 39.1442 72.9942C39.1442 74.6269 46.0872 76.809 52.4351 76.1986C58.6532 75.6035 65.6725 72.1931 65.5504 69.2023C65.4894 67.6916 63.5896 66.0589 62.2544 66.3183C61.0565 66.5548 59.9731 68.3706 60.3241 69.6906C61.1328 72.8034 70.3723 75.0466 76.5905 71.3233C79.4211 69.6295 80.9241 67.127 81.6413 65.6621" stroke="white" stroke-width="0.37037" stroke-miterlimit="10"/>
<path d="M47.1705 57.2172L96.168 41.9045L51.6491 16.2766C49.3449 14.6972 46.7661 13.507 44.0271 12.9653C36.9391 11.5691 29.2485 13.4841 23.4957 18.9927C15.477 26.6681 14.1037 39.2265 20.2684 48.4507C24.7088 55.0961 31.8273 58.6363 39.0754 58.7812C41.8526 58.8423 44.5993 58.2395 47.1781 57.2095L47.1705 57.2172Z" fill="#00FAC8"/>
<path d="M38.6637 54.2179C48.9114 54.2179 57.2189 45.9105 57.2189 35.6627C57.2189 25.4149 48.9114 17.1074 38.6637 17.1074C28.4159 17.1074 20.1084 25.4149 20.1084 35.6627C20.1084 45.9105 28.4159 54.2179 38.6637 54.2179Z" fill="#D968D3"/>
<mask id="mask0_936_11331" style="mask-type:luminance" maskUnits="userSpaceOnUse" x="20" y="17" width="38" height="38">
<path d="M38.6637 54.2179C48.9114 54.2179 57.2189 45.9105 57.2189 35.6627C57.2189 25.4149 48.9114 17.1074 38.6637 17.1074C28.4159 17.1074 20.1084 25.4149 20.1084 35.6627C20.1084 45.9105 28.4159 54.2179 38.6637 54.2179Z" fill="white"/>
</mask>
<g mask="url(#mask0_936_11331)">
<path d="M54.7923 21.7305L46.5065 16.1914L28.3632 17.4503L20.2987 26.583L18.2158 26.6059C18.2158 26.6059 20.7031 39.9119 27.524 28.0631C28.4166 31.1226 31.0412 37.211 36.2752 28.3988C37.267 31.5804 39.9603 37.0584 45.1484 28.0173H45.1637C46.1021 31.2599 49.0166 38.0961 54.983 26.4838L54.7923 21.7229V21.7305Z" fill="#171819"/>
</g>
<path d="M22.5496 40.0341C22.5496 40.0341 24.0603 36.2422 27.2495 36.2422C30.4387 36.2422 31.8807 40.0341 31.8807 40.0341C31.8807 40.0341 31.0414 43.9557 27.2113 43.9557C23.3813 43.9557 22.542 40.0341 22.542 40.0341H22.5496Z" fill="white"/>
<mask id="mask1_936_11331" style="mask-type:luminance" maskUnits="userSpaceOnUse" x="22" y="36" width="10" height="8">
<path d="M22.5496 40.0341C22.5496 40.0341 24.0603 36.2422 27.2495 36.2422C30.4387 36.2422 31.8807 40.0341 31.8807 40.0341C31.8807 40.0341 31.0414 43.9557 27.2113 43.9557C23.3813 43.9557 22.542 40.0341 22.542 40.0341H22.5496Z" fill="white"/>
</mask>
<g mask="url(#mask1_936_11331)">
<path d="M27.6688 47.2827C26.7074 39.9278 27.6688 33.2061 27.6688 33.2061L21.8474 36.7081L21.3057 41.7665L27.6688 47.2827Z" fill="#171819"/>
</g>
<path d="M33.994 40.0341C33.994 40.0341 35.5046 36.2422 38.6938 36.2422C41.883 36.2422 43.325 40.0341 43.325 40.0341C43.325 40.0341 42.4857 43.9557 38.6557 43.9557C34.8256 43.9557 33.9863 40.0341 33.9863 40.0341H33.994Z" fill="white"/>
<mask id="mask2_936_11331" style="mask-type:luminance" maskUnits="userSpaceOnUse" x="33" y="36" width="11" height="8">
<path d="M33.994 40.0341C33.994 40.0341 35.5046 36.2422 38.6938 36.2422C41.883 36.2422 43.325 40.0341 43.325 40.0341C43.325 40.0341 42.4857 43.9557 38.6557 43.9557C34.8256 43.9557 33.9863 40.0341 33.9863 40.0341H33.994Z" fill="white"/>
</mask>
<g mask="url(#mask2_936_11331)">
<path d="M39.1131 47.2827C38.1518 39.9278 39.1131 33.2061 39.1131 33.2061L33.2917 36.7081L32.75 41.7665L39.1131 47.2827Z" fill="#171819"/>
</g>
<path d="M32.8268 45.6037C34.4111 45.6037 35.6955 44.3193 35.6955 42.735C35.6955 41.1506 34.4111 39.8662 32.8268 39.8662C31.2424 39.8662 29.958 41.1506 29.958 42.735C29.958 44.3193 31.2424 45.6037 32.8268 45.6037Z" fill="#00FAC8"/>
<path d="M30.7588 47.3135C30.8656 49.549 32.8035 50.8918 34.1845 50.5942C35.4739 50.3196 36.6183 48.5495 36.1148 46.5811" stroke="white" stroke-width="0.37037" stroke-miterlimit="10" stroke-linecap="round"/>
</g>
</g>
<defs>
<filter id="filter0_d_936_11331" x="0" y="0" width="81" height="81" filterUnits="userSpaceOnUse" color-interpolation-filters="sRGB">
<feFlood flood-opacity="0" result="BackgroundImageFix"/>
<feColorMatrix in="SourceAlpha" type="matrix" values="0 0 0 0 0 0 0 0 0 0 0 0 0 0 0 0 0 0 127 0" result="hardAlpha"/>
<feOffset dy="1"/>
<feGaussianBlur stdDeviation="2"/>
<feComposite in2="hardAlpha" operator="out"/>
<feColorMatrix type="matrix" values="0 0 0 0 0 0 0 0 0 0 0 0 0 0 0 0 0 0 0.1 0"/>
<feBlend mode="normal" in2="BackgroundImageFix" result="effect1_dropShadow_936_11331"/>
<feBlend mode="normal" in="SourceGraphic" in2="effect1_dropShadow_936_11331" result="shape"/>
</filter>
<clipPath id="clip0_936_11331">
<path d="M4 19C4 10.1634 11.1634 3 20 3H61C69.8366 3 77 10.1634 77 19V60C77 68.8366 69.8366 76 61 76H20C11.1634 76 4 68.8366 4 60V19Z" fill="white"/>
</clipPath>
</defs>
</svg>
