<svg width="84" height="84" viewBox="0 0 84 84" fill="none" xmlns="http://www.w3.org/2000/svg">
<g filter="url(#filter0_d_3619_33029)">
<g clip-path="url(#clip0_3619_33029)">
<rect x="4" y="3" width="76" height="76" rx="38" fill="#2F2F2F"/>
<path d="M106.163 34.2642L94.5811 85.2301L41.2958 80.5989L52.8775 89.8689L71.5167 105.258L50.2758 115.215L41.2958 80.6065H38.9763L32.0258 59.7548L106.163 34.2642Z" fill="#6F50CB"/>
<path d="M79.5495 69.0334L57.4938 56.2996L56.254 58.447L78.3096 71.1808L79.5495 69.0334Z" fill="white"/>
<path d="M44.5764 61.1892L95.4432 54.2691L55.8225 21.5685C53.8083 19.623 51.4736 18.0208 48.8567 17.0365C42.1044 14.473 34.2001 15.0834 27.6081 19.5543C18.4221 25.7801 14.9658 37.9341 19.5055 48.0586C22.771 55.3526 29.2027 60.0295 36.3212 61.3876C39.045 61.9064 41.8603 61.7767 44.5688 61.1892H44.5764Z" fill="#00DDA8"/>
<path d="M40.0977 57.1757C50.3455 57.1757 58.653 48.8682 58.653 38.6204C58.653 28.3727 50.3455 20.0652 40.0977 20.0652C29.85 20.0652 21.5425 28.3727 21.5425 38.6204C21.5425 48.8682 29.85 57.1757 40.0977 57.1757Z" fill="#6F50CB"/>
<mask id="mask0_3619_33029" style="mask-type:luminance" maskUnits="userSpaceOnUse" x="21" y="20" width="38" height="38">
<path d="M40.0977 57.1757C50.3455 57.1757 58.653 48.8682 58.653 38.6204C58.653 28.3727 50.3455 20.0652 40.0977 20.0652C29.85 20.0652 21.5425 28.3727 21.5425 38.6204C21.5425 48.8682 29.85 57.1757 40.0977 57.1757Z" fill="white"/>
</mask>
<g mask="url(#mask0_3619_33029)">
<path d="M56.2193 24.6812L47.9335 19.1421L29.7902 20.401L21.7257 29.5336L19.6428 29.5565C19.6428 29.5565 22.1301 42.8626 28.951 31.0138C29.8436 34.0733 32.4682 40.1617 37.7022 31.3495C38.694 34.5311 41.3873 40.0091 46.5754 30.968H46.5907C47.5291 34.2106 50.4436 41.0468 56.41 29.4345L56.2193 24.6736V24.6812Z" fill="black"/>
</g>
<path d="M28.2872 37.011H27.8752C26.0169 37.011 24.5105 38.5174 24.5105 40.3757V43.3817C24.5105 45.24 26.0169 46.7464 27.8752 46.7464H28.2872C30.1454 46.7464 31.6518 45.24 31.6518 43.3817V40.3757C31.6518 38.5174 30.1454 37.011 28.2872 37.011Z" fill="white"/>
<path d="M30.2374 41.8716L27.3187 38.9529L24.4 41.8716L27.3187 44.7902L30.2374 41.8716Z" fill="black"/>
<path d="M38.5262 37.011H38.1142C36.2559 37.011 34.7495 38.5174 34.7495 40.3757V43.3817C34.7495 45.24 36.2559 46.7464 38.1142 46.7464H38.5262C40.3844 46.7464 41.8908 45.24 41.8908 43.3817V40.3757C41.8908 38.5174 40.3844 37.011 38.5262 37.011Z" fill="white"/>
<path d="M40.476 41.8708L37.5574 38.9521L34.6387 41.8708L37.5574 44.7895L40.476 41.8708Z" fill="black"/>
<path d="M33.0251 48.4704C34.6095 48.4704 35.8939 47.186 35.8939 45.6016C35.8939 44.0173 34.6095 42.7329 33.0251 42.7329C31.4407 42.7329 30.1564 44.0173 30.1564 45.6016C30.1564 47.186 31.4407 48.4704 33.0251 48.4704Z" fill="#00DDA8"/>
</g>
<rect x="4.5" y="3.5" width="75" height="75" rx="37.5" stroke="#333333"/>
</g>
<defs>
<filter id="filter0_d_3619_33029" x="0" y="0" width="84" height="84" filterUnits="userSpaceOnUse" color-interpolation-filters="sRGB">
<feFlood flood-opacity="0" result="BackgroundImageFix"/>
<feColorMatrix in="SourceAlpha" type="matrix" values="0 0 0 0 0 0 0 0 0 0 0 0 0 0 0 0 0 0 127 0" result="hardAlpha"/>
<feOffset dy="1"/>
<feGaussianBlur stdDeviation="2"/>
<feComposite in2="hardAlpha" operator="out"/>
<feColorMatrix type="matrix" values="0 0 0 0 0 0 0 0 0 0 0 0 0 0 0 0 0 0 0.1 0"/>
<feBlend mode="normal" in2="BackgroundImageFix" result="effect1_dropShadow_3619_33029"/>
<feBlend mode="normal" in="SourceGraphic" in2="effect1_dropShadow_3619_33029" result="shape"/>
</filter>
<clipPath id="clip0_3619_33029">
<rect x="4" y="3" width="76" height="76" rx="38" fill="white"/>
</clipPath>
</defs>
</svg>
