<svg width="44" height="45" viewBox="0 0 44 45" fill="none" xmlns="http://www.w3.org/2000/svg">
<rect width="44" height="45" rx="22" fill="#00FAC8"/>
<path d="M13 27.9595V30.9995C13 31.2795 13.22 31.4995 13.5 31.4995H16.54C16.67 31.4995 16.8 31.4495 16.89 31.3495L27.81 20.4395L24.06 16.6895L13.15 27.5995C13.05 27.6995 13 27.8195 13 27.9595ZM30.71 17.5395C30.8027 17.447 30.8762 17.3371 30.9264 17.2161C30.9766 17.0952 31.0024 16.9655 31.0024 16.8345C31.0024 16.7035 30.9766 16.5739 30.9264 16.4529C30.8762 16.3319 30.8027 16.222 30.71 16.1295L28.37 13.7895C28.2775 13.6968 28.1676 13.6233 28.0466 13.5731C27.9257 13.5229 27.796 13.4971 27.665 13.4971C27.534 13.4971 27.4043 13.5229 27.2834 13.5731C27.1624 13.6233 27.0525 13.6968 26.96 13.7895L25.13 15.6195L28.88 19.3695L30.71 17.5395Z" fill="black"/>
</svg>
