<svg width="259" height="151" viewBox="0 0 259 151" fill="none" xmlns="http://www.w3.org/2000/svg">
<g clip-path="url(#clip0_6012_3069)">
<rect x="85" width="174" height="66" rx="16" fill="#2A2C2E"/>
<rect x="219.209" y="43" width="9" height="29.2608" rx="2" transform="rotate(18.3454 219.209 43)" fill="#508FFF"/>
<circle cx="182.978" cy="30.0572" r="9" transform="rotate(6.62334 182.978 30.0572)" fill="#508FFF"/>
<path d="M183.651 6.91787C183.814 5.51682 185.337 4.71982 186.581 5.3847L215.271 20.7195L212.272 46.546L180.886 53.9998C179.536 54.3205 178.277 53.2019 178.437 51.8233L183.651 6.91787Z" fill="#00FAC8"/>
<rect x="215.271" y="20.7195" width="5" height="26" transform="rotate(6.62334 215.271 20.7195)" fill="#508FFF"/>
<path d="M220.237 21.2963L229.177 22.3343C234.663 22.9714 238.594 27.935 237.957 33.421L237.265 39.381C236.628 44.867 231.664 48.7978 226.178 48.1608L217.238 47.1227L220.237 21.2963Z" fill="#00FAC8"/>
<line x1="152.407" y1="21.9365" x2="163.998" y2="25.0424" stroke="white" stroke-width="3"/>
<line x1="151.612" y1="37.4612" x2="163.203" y2="34.3554" stroke="white" stroke-width="3"/>
<line y1="-1.5" x2="12" y2="-1.5" transform="matrix(0.707107 0.707107 0.707107 -0.707107 160.282 8)" stroke="white" stroke-width="3"/>
</g>
<rect width="66" height="66" rx="16" fill="#00FAC8"/>
<path d="M21.1365 56.0794L14.3999 31.0492H23.6627V40.4355L26.7504 31.0492L32.9256 24.7916L39.1008 37.3067L41.3464 12.2765L51.4513 9.14768L48.3637 40.4355L44.7147 56.0794L32.9256 52.9506L29.838 40.4355L26.7504 56.0794H21.1365Z" fill="black"/>
<path d="M31.073 14.3966C31.073 19.0008 27.3406 22.7332 22.7365 22.7332C18.1323 22.7332 14.3999 19.0008 14.3999 14.3966C14.3999 9.79246 18.1323 6.06006 22.7365 6.06006C27.3406 6.06006 31.073 9.79246 31.073 14.3966Z" fill="black"/>
<g clip-path="url(#clip1_6012_3069)">
<rect y="85" width="174" height="66" rx="16" fill="#2A2C2E"/>
<path d="M55.541 99C56.9709 99.0002 58.202 100.01 58.4824 101.412L59.5996 107H103C104.657 107 106 108.343 106 110V161C106 162.657 104.657 164 103 164H24C22.3431 164 21 162.657 21 161V102C21 100.343 22.3431 99 24 99H55.541Z" fill="#9FA3A6"/>
<rect x="28" y="112" width="70" height="52" rx="2" fill="#171819"/>
<path d="M31.9003 123.716C32.2542 122.408 33.441 121.5 34.7961 121.5H113.58C115.556 121.5 116.992 123.377 116.476 125.284L106.6 161.784C106.246 163.092 105.059 164 103.704 164H24.9196C22.944 164 21.5078 162.123 22.0238 160.216L31.9003 123.716Z" fill="white"/>
<rect x="123" y="90" width="40" height="21" rx="2" fill="white"/>
<circle cx="133.5" cy="100.5" r="6.5" fill="#171819"/>
<line x1="144" y1="95.5" x2="158" y2="95.5" stroke="black"/>
</g>
<rect x="94" y="51" width="57" height="30" rx="2" fill="white"/>
<circle cx="226" cy="118" r="33" fill="#508FFF"/>
<line x1="100" y1="58.5" x2="125" y2="58.5" stroke="black"/>
<line x1="100" y1="64.5" x2="118" y2="64.5" stroke="black"/>
<path d="M211 116.087L223.435 129L244 107" stroke="white" stroke-width="8"/>
<defs>
<clipPath id="clip0_6012_3069">
<rect x="85" width="174" height="66" rx="16" fill="white"/>
</clipPath>
<clipPath id="clip1_6012_3069">
<rect y="85" width="174" height="66" rx="16" fill="white"/>
</clipPath>
</defs>
</svg>
