<svg width="24" height="24" viewBox="0 0 24 24" fill="none" xmlns="http://www.w3.org/2000/svg">
<path d="M6.34607 18.25C6.19007 18.25 6.05807 18.196 5.95007 18.088C5.84207 17.98 5.7884 17.8477 5.78907 17.691C5.78974 17.5343 5.8434 17.4023 5.95007 17.295C6.05674 17.1877 6.18874 17.1343 6.34607 17.135H9.42307L12.9031 6.865H9.82807C9.67207 6.865 9.54007 6.811 9.43207 6.703C9.32407 6.595 9.27007 6.46267 9.27007 6.306C9.27007 6.14933 9.32407 6.01767 9.43207 5.911C9.54007 5.80433 9.67207 5.75067 9.82807 5.75H17.0201C17.1767 5.75 17.3087 5.804 17.4161 5.912C17.5234 6.02 17.5774 6.15233 17.5781 6.309C17.5787 6.46567 17.5247 6.59767 17.4161 6.705C17.3087 6.81167 17.1767 6.865 17.0201 6.865H14.0591L10.5781 17.135H13.5401C13.6961 17.135 13.8277 17.189 13.9351 17.297C14.0424 17.405 14.0964 17.5373 14.0971 17.694C14.0977 17.8507 14.0437 17.9827 13.9351 18.09C13.8264 18.1973 13.6947 18.2507 13.5401 18.25H6.34607Z" fill="white" fill-opacity="0.8"/>
</svg>
