<svg width="24" height="24" viewBox="0 0 24 24" fill="none" xmlns="http://www.w3.org/2000/svg">
<path d="M7.62469 18C7.27968 18 7 17.7203 7 17.3753V6.62469C7 6.27968 7.27968 6 7.62469 6C7.96969 6 8.24937 6.27968 8.24937 6.62469V11.4531H15.7506V6.62468C15.7506 6.27968 16.0303 6 16.3753 6C16.7203 6 17 6.27968 17 6.62469V17.3753C17 17.7203 16.7203 18 16.3753 18C16.0303 18 15.7506 17.7203 15.7506 17.3753V12.5273H8.24937V17.3753C8.24937 17.7203 7.96969 18 7.62469 18Z" fill="white" fill-opacity="0.8"/>
</svg>
