<svg width="24" height="24" viewBox="0 0 24 24" fill="none" xmlns="http://www.w3.org/2000/svg">
<path d="M4.50001 20C4.35801 20 4.23934 19.952 4.14401 19.856C4.04867 19.76 4.00067 19.641 4.00001 19.499C3.99934 19.357 4.04734 19.2383 4.14401 19.143C4.24067 19.0477 4.35934 19 4.50001 19H19.5C19.642 19 19.7607 19.048 19.856 19.144C19.9513 19.24 19.9993 19.359 20 19.501C20.0007 19.643 19.9527 19.7617 19.856 19.857C19.7593 19.9523 19.6407 20 19.5 20H4.50001ZM12.5 16.25C12.358 16.25 12.2393 16.202 12.144 16.106C12.0487 16.01 12.0007 15.891 12 15.749C11.9993 15.607 12.0473 15.4883 12.144 15.393C12.2407 15.2977 12.3593 15.25 12.5 15.25H19.5C19.642 15.25 19.7607 15.298 19.856 15.394C19.9513 15.49 19.9993 15.609 20 15.751C20.0007 15.893 19.9527 16.0117 19.856 16.107C19.7593 16.2023 19.6407 16.25 19.5 16.25H12.5ZM12.5 12.5C12.358 12.5 12.2393 12.452 12.144 12.356C12.0487 12.26 12.0007 12.141 12 11.999C11.9993 11.857 12.0473 11.7383 12.144 11.643C12.2407 11.5477 12.3593 11.5 12.5 11.5H19.5C19.642 11.5 19.7607 11.548 19.856 11.644C19.9513 11.74 19.9993 11.859 20 12.001C20.0007 12.143 19.9527 12.2617 19.856 12.357C19.7593 12.4523 19.6407 12.5 19.5 12.5H12.5ZM12.5 8.75C12.358 8.75 12.2393 8.702 12.144 8.606C12.0487 8.51 12.0007 8.391 12 8.249C11.9993 8.107 12.0473 7.98833 12.144 7.893C12.2407 7.79767 12.3593 7.75 12.5 7.75H19.5C19.642 7.75 19.7607 7.798 19.856 7.894C19.9513 7.99 19.9993 8.109 20 8.251C20.0007 8.393 19.9527 8.51167 19.856 8.607C19.7593 8.70233 19.6407 8.75 19.5 8.75H12.5ZM4.50001 5C4.35801 5 4.23934 4.952 4.14401 4.856C4.04867 4.76 4.00067 4.641 4.00001 4.499C3.99934 4.357 4.04734 4.23833 4.14401 4.143C4.24067 4.04767 4.35934 4 4.50001 4H19.5C19.642 4 19.7607 4.048 19.856 4.144C19.9513 4.24 19.9993 4.359 20 4.501C20.0007 4.643 19.9527 4.76167 19.856 4.857C19.7593 4.95233 19.6407 5 19.5 5H4.50001ZM4.69601 14.112C4.56801 14.24 4.42001 14.2717 4.25201 14.207C4.08401 14.1423 4.00001 14.0193 4.00001 13.838V10.162C4.00001 9.98067 4.08401 9.85767 4.25201 9.793C4.42001 9.72833 4.56801 9.76033 4.69601 9.889L6.51601 11.708C6.60267 11.79 6.64601 11.886 6.64601 11.996C6.64601 12.106 6.60267 12.2047 6.51601 12.292L4.69601 14.112Z" fill="white" fill-opacity="0.8"/>
</svg>
