<svg width="24" height="24" viewBox="0 0 24 24" fill="none" xmlns="http://www.w3.org/2000/svg">
<path d="M9.039 18.499C8.745 18.499 8.49833 18.3993 8.299 18.2C8.09967 18.0007 8 17.754 8 17.46V7.039C8 6.745 8.09967 6.49833 8.299 6.299C8.49833 6.09967 8.745 6 9.039 6H12.198C13.1533 6 13.9963 6.30133 14.727 6.904C15.4577 7.50667 15.823 8.29033 15.823 9.255C15.823 9.89967 15.6537 10.464 15.315 10.948C14.9763 11.432 14.5573 11.787 14.058 12.013C14.6667 12.183 15.1833 12.5407 15.608 13.086C16.0327 13.6313 16.2453 14.288 16.246 15.056C16.246 16.1293 15.8453 16.9717 15.044 17.583C14.2427 18.1937 13.3607 18.499 12.398 18.499H9.039ZM9.275 17.315H12.337C13.111 17.315 13.736 17.0817 14.212 16.615C14.6887 16.149 14.927 15.6067 14.927 14.988C14.927 14.368 14.689 13.825 14.213 13.359C13.7363 12.8937 13.105 12.661 12.319 12.661H9.275V17.315ZM9.275 11.499H12.139C12.8037 11.499 13.367 11.2933 13.829 10.882C14.291 10.4707 14.5217 9.95533 14.521 9.336C14.521 8.70467 14.2863 8.187 13.817 7.783C13.3477 7.37967 12.792 7.178 12.15 7.178H9.275V11.499Z" fill="white" fill-opacity="0.8"/>
</svg>
