<svg width="24" height="24" viewBox="0 0 24 24" fill="none" xmlns="http://www.w3.org/2000/svg">
<path d="M10.116 18.4999C9.974 18.4999 9.855 18.4519 9.759 18.3559C9.663 18.2599 9.61533 18.1409 9.616 17.9989C9.61667 17.8569 9.66433 17.7382 9.759 17.6429C9.85367 17.5475 9.97267 17.4999 10.116 17.4999H19.5C19.642 17.4999 19.7607 17.5479 19.856 17.6439C19.9513 17.7399 19.9993 17.8589 20 18.0009C20.0007 18.1429 19.9527 18.2615 19.856 18.3569C19.7593 18.4522 19.6407 18.4999 19.5 18.4999H10.116ZM10.116 12.4999C9.974 12.4999 9.855 12.4519 9.759 12.3559C9.663 12.2599 9.61533 12.1409 9.616 11.9989C9.61667 11.8569 9.66433 11.7382 9.759 11.6429C9.85367 11.5475 9.97267 11.4999 10.116 11.4999H19.5C19.642 11.4999 19.7607 11.5479 19.856 11.6439C19.9513 11.7399 19.9993 11.8589 20 12.0009C20.0007 12.1429 19.9527 12.2615 19.856 12.3569C19.7593 12.4522 19.6407 12.4999 19.5 12.4999H10.116ZM10.116 6.49985C9.974 6.49985 9.855 6.45185 9.759 6.35585C9.663 6.25985 9.61533 6.14085 9.616 5.99885C9.61667 5.85685 9.66433 5.73819 9.759 5.64285C9.85367 5.54752 9.97267 5.49985 10.116 5.49985H19.5C19.642 5.49985 19.7607 5.54785 19.856 5.64385C19.9513 5.73985 19.9993 5.85885 20 6.00085C20.0007 6.14285 19.9527 6.26152 19.856 6.35685C19.7593 6.45218 19.6407 6.49985 19.5 6.49985H10.116ZM5.327 19.3269C4.96233 19.3269 4.65 19.1969 4.39 18.9369C4.13 18.6769 4 18.3645 4 17.9999C4 17.6352 4.13 17.3229 4.39 17.0629C4.65 16.8029 4.96233 16.6729 5.327 16.6729C5.69167 16.6729 6.004 16.8029 6.264 17.0629C6.524 17.3229 6.654 17.6352 6.654 17.9999C6.654 18.3645 6.524 18.6769 6.264 18.9369C6.004 19.1969 5.69167 19.3269 5.327 19.3269ZM5.327 13.3269C4.96233 13.3269 4.65 13.1969 4.39 12.9369C4.13 12.6769 4 12.3645 4 11.9999C4 11.6352 4.13 11.3229 4.39 11.0629C4.65 10.8029 4.96233 10.6729 5.327 10.6729C5.69167 10.6729 6.004 10.8029 6.264 11.0629C6.524 11.3229 6.654 11.6352 6.654 11.9999C6.654 12.3645 6.524 12.6769 6.264 12.9369C6.004 13.1969 5.69167 13.3269 5.327 13.3269ZM5.327 7.32685C4.96233 7.32685 4.65 7.19685 4.39 6.93685C4.13 6.67685 4 6.36452 4 5.99985C4 5.63519 4.13 5.32285 4.39 5.06285C4.65 4.80285 4.96233 4.67285 5.327 4.67285C5.69167 4.67285 6.004 4.80285 6.264 5.06285C6.524 5.32285 6.654 5.63519 6.654 5.99985C6.654 6.36452 6.524 6.67685 6.264 6.93685C6.004 7.19685 5.69167 7.32685 5.327 7.32685Z" fill="white" fill-opacity="0.8"/>
</svg>
