<svg width="186" height="73" viewBox="0 0 186 73" fill="none" xmlns="http://www.w3.org/2000/svg">
<g clip-path="url(#clip0_977_8163)">
<path d="M0 16C0 7.16344 7.16344 0 16 0H169.5C178.337 0 185.5 7.16344 185.5 16V57C185.5 65.8366 178.337 73 169.5 73H16C7.16344 73 0 65.8366 0 57V16Z" fill="#2A2C2E"/>
<path d="M110.111 31.9149L62.2734 109.63L127.682 101.367L134.48 74.7857L110.119 31.9072L110.111 31.9149Z" fill="#D968D3"/>
<path d="M78.624 78.9208C79.9287 78.9437 92.632 79.0963 94.3716 73.8243C94.9209 72.1686 94.6386 69.1778 93.4255 68.72C92.5786 68.3996 91.1442 69.2541 91.1442 69.9942C91.1442 71.6269 98.0872 73.809 104.435 73.1986C110.653 72.6035 117.672 69.1931 117.55 66.2023C117.489 64.6916 115.59 63.0589 114.254 63.3183C113.057 63.5548 111.973 65.3706 112.324 66.6906C113.133 69.8034 122.372 72.0466 128.59 68.3233C131.421 66.6295 132.924 64.127 133.641 62.6621" stroke="white" stroke-width="0.37037" stroke-miterlimit="10"/>
<path d="M99.1705 54.2172L148.168 38.9045L103.649 13.2766C101.345 11.6972 98.7661 10.507 96.0271 9.9653C88.9391 8.56908 81.2485 10.4841 75.4957 15.9927C67.477 23.6681 66.1037 36.2265 72.2684 45.4507C76.7088 52.0961 83.8273 55.6363 91.0754 55.7812C93.8526 55.8423 96.5993 55.2395 99.1781 54.2095L99.1705 54.2172Z" fill="#00FAC8"/>
<path d="M90.6637 51.2179C100.911 51.2179 109.219 42.9105 109.219 32.6627C109.219 22.4149 100.911 14.1074 90.6637 14.1074C80.4159 14.1074 72.1084 22.4149 72.1084 32.6627C72.1084 42.9105 80.4159 51.2179 90.6637 51.2179Z" fill="#D968D3"/>
<mask id="mask0_977_8163" style="mask-type:luminance" maskUnits="userSpaceOnUse" x="72" y="14" width="38" height="38">
<path d="M90.6637 51.2179C100.911 51.2179 109.219 42.9105 109.219 32.6627C109.219 22.4149 100.911 14.1074 90.6637 14.1074C80.4159 14.1074 72.1084 22.4149 72.1084 32.6627C72.1084 42.9105 80.4159 51.2179 90.6637 51.2179Z" fill="white"/>
</mask>
<g mask="url(#mask0_977_8163)">
<path d="M106.792 18.7305L98.5065 13.1914L80.3632 14.4503L72.2987 23.583L70.2158 23.6059C70.2158 23.6059 72.7031 36.9119 79.524 25.0631C80.4166 28.1226 83.0412 34.211 88.2752 25.3988C89.267 28.5804 91.9603 34.0584 97.1484 25.0173H97.1637C98.1021 28.2599 101.017 35.0961 106.983 23.4838L106.792 18.7229V18.7305Z" fill="#171819"/>
</g>
<path d="M74.5496 37.0341C74.5496 37.0341 76.0603 33.2422 79.2495 33.2422C82.4387 33.2422 83.8807 37.0341 83.8807 37.0341C83.8807 37.0341 83.0414 40.9557 79.2113 40.9557C75.3813 40.9557 74.542 37.0341 74.542 37.0341H74.5496Z" fill="white"/>
<mask id="mask1_977_8163" style="mask-type:luminance" maskUnits="userSpaceOnUse" x="74" y="33" width="10" height="8">
<path d="M74.5496 37.0341C74.5496 37.0341 76.0603 33.2422 79.2495 33.2422C82.4387 33.2422 83.8807 37.0341 83.8807 37.0341C83.8807 37.0341 83.0414 40.9557 79.2113 40.9557C75.3813 40.9557 74.542 37.0341 74.542 37.0341H74.5496Z" fill="white"/>
</mask>
<g mask="url(#mask1_977_8163)">
<path d="M79.6688 44.2827C78.7074 36.9278 79.6688 30.2061 79.6688 30.2061L73.8474 33.7081L73.3057 38.7665L79.6688 44.2827Z" fill="#171819"/>
</g>
<path d="M85.994 37.0341C85.994 37.0341 87.5046 33.2422 90.6938 33.2422C93.883 33.2422 95.325 37.0341 95.325 37.0341C95.325 37.0341 94.4857 40.9557 90.6557 40.9557C86.8256 40.9557 85.9863 37.0341 85.9863 37.0341H85.994Z" fill="white"/>
<mask id="mask2_977_8163" style="mask-type:luminance" maskUnits="userSpaceOnUse" x="85" y="33" width="11" height="8">
<path d="M85.994 37.0341C85.994 37.0341 87.5046 33.2422 90.6938 33.2422C93.883 33.2422 95.325 37.0341 95.325 37.0341C95.325 37.0341 94.4857 40.9557 90.6557 40.9557C86.8256 40.9557 85.9863 37.0341 85.9863 37.0341H85.994Z" fill="white"/>
</mask>
<g mask="url(#mask2_977_8163)">
<path d="M91.1131 44.2827C90.1518 36.9278 91.1131 30.2061 91.1131 30.2061L85.2917 33.7081L84.75 38.7665L91.1131 44.2827Z" fill="#171819"/>
</g>
<path d="M84.8268 42.6037C86.4111 42.6037 87.6955 41.3193 87.6955 39.735C87.6955 38.1506 86.4111 36.8662 84.8268 36.8662C83.2424 36.8662 81.958 38.1506 81.958 39.735C81.958 41.3193 83.2424 42.6037 84.8268 42.6037Z" fill="#00FAC8"/>
<path d="M82.7588 44.3135C82.8656 46.549 84.8035 47.8918 86.1845 47.5942C87.4739 47.3196 88.6183 45.5495 88.1148 43.5811" stroke="white" stroke-width="0.37037" stroke-miterlimit="10" stroke-linecap="round"/>
</g>
<defs>
<clipPath id="clip0_977_8163">
<path d="M0 16C0 7.16344 7.16344 0 16 0H169.5C178.337 0 185.5 7.16344 185.5 16V57C185.5 65.8366 178.337 73 169.5 73H16C7.16344 73 0 65.8366 0 57V16Z" fill="white"/>
</clipPath>
</defs>
</svg>
