<svg width="186" height="73" viewBox="0 0 186 73" fill="none" xmlns="http://www.w3.org/2000/svg">
<g clip-path="url(#clip0_977_8166)">
<path d="M0 16C0 7.16344 7.16344 0 16 0H169.5C178.337 0 185.5 7.16344 185.5 16V57C185.5 65.8366 178.337 73 169.5 73H16C7.16344 73 0 65.8366 0 57V16Z" fill="#2A2C2E"/>
<path d="M157.163 30.2646L145.581 81.2306L92.2954 76.5994L103.877 85.8694L122.516 101.258L101.275 111.215L92.2954 76.607H89.976L83.0254 55.7552L157.163 30.2646Z" fill="#6F50CB"/>
<path d="M130.55 65.0337L108.494 52.2998L107.254 54.4472L129.31 67.1811L130.55 65.0337Z" fill="white"/>
<path d="M95.5768 57.1895L146.444 50.2694L106.823 17.5688C104.809 15.6232 102.474 14.021 99.857 13.0368C93.1048 10.4732 85.2005 11.0836 78.6085 15.5546C69.4224 21.7803 65.9662 33.9343 70.5058 44.0589C73.7713 51.3528 80.2031 56.0298 87.3216 57.3878C90.0453 57.9066 92.8607 57.7769 95.5692 57.1895H95.5768Z" fill="#00FAC8"/>
<path d="M91.0982 53.1759C101.346 53.1759 109.653 44.8685 109.653 34.6207C109.653 24.3729 101.346 16.0654 91.0982 16.0654C80.8504 16.0654 72.543 24.3729 72.543 34.6207C72.543 44.8685 80.8504 53.1759 91.0982 53.1759Z" fill="#6F50CB"/>
<mask id="mask0_977_8166" style="mask-type:luminance" maskUnits="userSpaceOnUse" x="72" y="16" width="38" height="38">
<path d="M91.0982 53.1759C101.346 53.1759 109.653 44.8685 109.653 34.6207C109.653 24.3729 101.346 16.0654 91.0982 16.0654C80.8504 16.0654 72.543 24.3729 72.543 34.6207C72.543 44.8685 80.8504 53.1759 91.0982 53.1759Z" fill="white"/>
</mask>
<g mask="url(#mask0_977_8166)">
<path d="M107.22 20.6817L98.9342 15.1426L80.791 16.4015L72.7264 25.5341L70.6436 25.557C70.6436 25.557 73.1308 38.8631 79.9517 27.0143C80.8444 30.0738 83.469 36.1622 88.7029 27.35C89.6947 30.5315 92.388 36.0096 97.5761 26.9685H97.5914C98.5299 30.2111 101.444 37.0472 107.411 25.4349L107.22 20.6741V20.6817Z" fill="black"/>
</g>
<path d="M79.2874 33.0107H78.8754C77.0172 33.0107 75.5107 34.5172 75.5107 36.3754V39.3815C75.5107 41.2397 77.0172 42.7461 78.8754 42.7461H79.2874C81.1457 42.7461 82.6521 41.2397 82.6521 39.3815V36.3754C82.6521 34.5172 81.1457 33.0107 79.2874 33.0107Z" fill="white"/>
<path d="M81.238 37.8708L78.3193 34.9521L75.4007 37.8708L78.3193 40.7895L81.238 37.8708Z" fill="black"/>
<path d="M89.5267 33.0107H89.1147C87.2564 33.0107 85.75 34.5172 85.75 36.3754V39.3815C85.75 41.2397 87.2564 42.7461 89.1147 42.7461H89.5267C91.3849 42.7461 92.8913 41.2397 92.8913 39.3815V36.3754C92.8913 34.5172 91.3849 33.0107 89.5267 33.0107Z" fill="white"/>
<path d="M91.4763 37.8708L88.5576 34.9521L85.6389 37.8708L88.5576 40.7895L91.4763 37.8708Z" fill="black"/>
<path d="M84.026 44.4709C85.6103 44.4709 86.8947 43.1865 86.8947 41.6021C86.8947 40.0178 85.6103 38.7334 84.026 38.7334C82.4416 38.7334 81.1572 40.0178 81.1572 41.6021C81.1572 43.1865 82.4416 44.4709 84.026 44.4709Z" fill="#00FAC8"/>
</g>
<defs>
<clipPath id="clip0_977_8166">
<path d="M0 16C0 7.16344 7.16344 0 16 0H169.5C178.337 0 185.5 7.16344 185.5 16V57C185.5 65.8366 178.337 73 169.5 73H16C7.16344 73 0 65.8366 0 57V16Z" fill="white"/>
</clipPath>
</defs>
</svg>
