<svg width="186" height="73" viewBox="0 0 186 73" fill="none" xmlns="http://www.w3.org/2000/svg">
<g clip-path="url(#clip0_977_8157)">
<path d="M0 16C0 7.16344 7.16344 0 16 0H169.5C178.337 0 185.5 7.16344 185.5 16V57C185.5 65.8366 178.337 73 169.5 73H16C7.16344 73 0 65.8366 0 57V16Z" fill="#2A2C2E"/>
<path d="M67.0736 88.54L72.0176 83.596L58.5437 70.1221C58.6886 69.5651 58.742 69.1684 58.742 69.1684C58.742 69.1684 59.5202 61.2794 56.003 61.2794C52.4857 61.2794 49.9527 71.0071 51.4481 72.8611C51.6465 73.1129 51.8601 73.3189 52.0661 73.502L52.0508 73.5173L67.0736 88.54Z" fill="#00FAC8"/>
<mask id="mask0_977_8157" style="mask-type:luminance" maskUnits="userSpaceOnUse" x="51" y="61" width="22" height="28">
<path d="M67.0736 88.54L72.0176 83.596L58.5437 70.1221C58.6886 69.5651 58.742 69.1684 58.742 69.1684C58.742 69.1684 59.5202 61.2794 56.003 61.2794C52.4857 61.2794 49.9527 71.0071 51.4481 72.8611C51.6465 73.1129 51.8601 73.3189 52.0661 73.502L52.0508 73.5173L67.0736 88.54Z" fill="white"/>
</mask>
<g mask="url(#mask0_977_8157)">
<path d="M52.2974 89.811L68.833 73.2754L52.2974 56.7398L35.7619 73.2754L52.2974 89.811Z" fill="#171819"/>
</g>
<path d="M111.15 99.1755L125.677 66.0934L106.313 34.6212L100.667 56.4038L56.2853 53.9852L66.776 79.8038L97.4395 71.7317L97.4395 84.641L54.6754 79.7962L60.3214 112.894L111.15 99.1755Z" fill="#FF5858"/>
<path d="M109.028 73.4326L109.028 69.8009" stroke="white" stroke-width="0.37037" stroke-miterlimit="10"/>
<path d="M104.932 69.3359L104.932 65.7042" stroke="white" stroke-width="0.37037" stroke-miterlimit="10"/>
<path d="M100.834 65.2314L100.834 61.5997" stroke="white" stroke-width="0.37037" stroke-miterlimit="10"/>
<path d="M100.834 74.1729L100.834 70.5411" stroke="white" stroke-width="0.37037" stroke-miterlimit="10"/>
<path d="M117.23 63.415L117.23 59.7833" stroke="white" stroke-width="0.37037" stroke-miterlimit="10"/>
<path d="M117.23 72.3574L117.23 68.7257" stroke="white" stroke-width="0.37037" stroke-miterlimit="10"/>
<path d="M113.134 68.2598L113.134 64.6281" stroke="white" stroke-width="0.37037" stroke-miterlimit="10"/>
<path d="M109.028 64.1631L109.028 60.5314" stroke="white" stroke-width="0.37037" stroke-miterlimit="10"/>
<path d="M91.0839 58.5249L142.416 59.3184L108.151 21.0405C106.458 18.8203 104.382 16.8824 101.948 15.509C95.654 11.9612 87.7497 11.3738 80.5626 14.8071C70.5449 19.5832 65.3034 31.0811 68.2713 41.7778C70.4076 49.4761 76.0611 55.0687 82.8973 57.4796C85.5142 58.4028 88.3143 58.6927 91.0839 58.5249Z" fill="#00FAC8"/>
<path d="M90.9848 17.3631C80.737 17.3631 72.4295 25.6706 72.4295 35.9184C72.4295 46.1662 80.737 54.4736 90.9848 54.4736C101.233 54.4736 109.54 46.1662 109.54 35.9184C109.54 25.6706 101.233 17.3631 90.9848 17.3631Z" fill="#FF5858"/>
<mask id="mask1_977_8157" style="mask-type:luminance" maskUnits="userSpaceOnUse" x="72" y="17" width="38" height="38">
<path d="M90.9848 17.3631C80.737 17.3631 72.4295 25.6706 72.4295 35.9184C72.4295 46.1662 80.737 54.4736 90.9848 54.4736C101.233 54.4736 109.54 46.1662 109.54 35.9184C109.54 25.6706 101.233 17.3631 90.9848 17.3631Z" fill="white"/>
</mask>
<g mask="url(#mask1_977_8157)">
<path d="M107.114 21.9863L98.8282 16.4472L80.6849 17.7061L72.6204 26.8388L70.5375 26.8617C70.5375 26.8617 73.0248 40.1677 79.8456 28.3189C80.7383 31.3784 83.3629 37.4668 88.5968 28.6546C89.5887 31.8362 92.2819 37.3142 97.4701 28.2731L97.4854 28.2731C98.4238 31.5157 101.338 38.3519 107.305 26.7396L107.114 21.9787L107.114 21.9863Z" fill="#171819"/>
</g>
<path d="M81.3711 44.6388C83.8431 43.0748 82.9733 39.115 82.8741 38.6877C82.7978 38.3673 81.8517 34.5449 79.2882 34.2397C77.0069 33.965 74.8325 36.6506 74.4891 39.1531C74.2603 40.8164 74.7409 43.1816 76.6865 44.41C77.9454 45.2111 79.8909 45.5773 81.3711 44.6388Z" fill="white"/>
<mask id="mask2_977_8157" style="mask-type:luminance" maskUnits="userSpaceOnUse" x="74" y="34" width="10" height="12">
<path d="M81.3711 44.6388C83.8431 43.0748 82.9733 39.115 82.8741 38.6877C82.7978 38.3673 81.8517 34.5449 79.2882 34.2397C77.0069 33.965 74.8325 36.6506 74.4891 39.1531C74.2603 40.8164 74.7409 43.1816 76.6865 44.41C77.9454 45.2111 79.8909 45.5773 81.3711 44.6388Z" fill="white"/>
</mask>
<g mask="url(#mask2_977_8157)">
<path d="M74.214 37.9631C74.1148 39.4204 74.9693 41.3507 76.6097 41.6483C78.2577 41.9458 79.6692 40.4046 80.1422 39.1C80.8136 37.2612 80.0354 34.8045 78.4942 34.3085C76.7776 33.7592 74.3666 35.7353 74.214 37.9631Z" fill="#171819"/>
</g>
<path d="M93.1513 44.6388C95.6233 43.0748 94.7536 39.115 94.6544 38.6877C94.5781 38.3673 93.632 34.5449 91.0684 34.2397C88.7872 33.965 86.6127 36.6506 86.2694 39.1531C86.0405 40.8164 86.5212 43.1816 88.4667 44.41C89.7256 45.2111 91.6712 45.5773 93.1513 44.6388Z" fill="white"/>
<mask id="mask3_977_8157" style="mask-type:luminance" maskUnits="userSpaceOnUse" x="86" y="34" width="9" height="12">
<path d="M93.1513 44.6388C95.6233 43.0748 94.7536 39.115 94.6544 38.6877C94.5781 38.3673 93.632 34.5449 91.0684 34.2397C88.7872 33.965 86.6127 36.6506 86.2694 39.1531C86.0405 40.8164 86.5212 43.1816 88.4667 44.41C89.7256 45.2111 91.6712 45.5773 93.1513 44.6388Z" fill="white"/>
</mask>
<g mask="url(#mask3_977_8157)">
<path d="M85.9943 37.9631C85.8951 39.4204 86.7496 41.3507 88.39 41.6483C90.038 41.9458 91.4495 40.4046 91.9225 39.1C92.5939 37.2612 91.8157 34.8045 90.2745 34.3085C88.5578 33.7592 86.1469 35.7353 85.9943 37.9631Z" fill="#171819"/>
</g>
<path d="M84.5375 40.076C82.9531 40.076 81.6688 41.3604 81.6688 42.9447C81.6688 44.5291 82.9531 45.8135 84.5375 45.8135C86.1219 45.8135 87.4063 44.5291 87.4063 42.9447C87.4063 41.3604 86.1219 40.076 84.5375 40.076Z" fill="#00FAC8"/>
</g>
<defs>
<clipPath id="clip0_977_8157">
<path d="M0 16C0 7.16344 7.16344 0 16 0H169.5C178.337 0 185.5 7.16344 185.5 16V57C185.5 65.8366 178.337 73 169.5 73H16C7.16344 73 0 65.8366 0 57V16Z" fill="white"/>
</clipPath>
</defs>
</svg>
