<svg width="186" height="73" viewBox="0 0 186 73" fill="none" xmlns="http://www.w3.org/2000/svg">
<g clip-path="url(#clip0_977_8160)">
<path d="M0 16C0 7.16344 7.16344 0 16 0H169.5C178.337 0 185.5 7.16344 185.5 16V57C185.5 65.8366 178.337 73 169.5 73H16C7.16344 73 0 65.8366 0 57V16Z" fill="#2A2C2E"/>
<path d="M83.3447 44.7979L95.6361 109.352L129.092 93.6504L136.6 61.377L83.3447 44.7979Z" fill="#508FFF"/>
<path d="M106.821 58.0737L123.263 19.3457L153.621 31.4997L151.088 49.7269L106.821 58.0813V58.0737Z" fill="#508FFF"/>
<path d="M138.819 40.2652L122.342 36.3428L121.626 39.3488L138.104 43.2712L138.819 40.2652Z" fill="white"/>
<path d="M119.286 74.0689L102.809 70.1465L102.093 73.1525L118.57 77.0749L119.286 74.0689Z" fill="white"/>
<path d="M88.9679 56.2884L140.3 57.0895L106.035 18.8116C104.342 16.5914 102.266 14.6535 99.8325 13.2802C93.5381 9.73239 85.6338 9.14491 78.4467 12.5782C68.429 17.3544 63.1874 28.8522 66.1554 39.5414C68.2917 47.2396 73.9452 52.8322 80.7814 55.2431C83.3983 56.1663 86.1984 56.4562 88.9679 56.2884Z" fill="#00FAC8"/>
<path d="M88.2584 52.2443C98.5062 52.2443 106.814 43.9368 106.814 33.689C106.814 23.4413 98.5062 15.1338 88.2584 15.1338C78.0106 15.1338 69.7031 23.4413 69.7031 33.689C69.7031 43.9368 78.0106 52.2443 88.2584 52.2443Z" fill="#508FFF"/>
<mask id="mask0_977_8160" style="mask-type:luminance" maskUnits="userSpaceOnUse" x="69" y="15" width="38" height="38">
<path d="M88.2584 52.2443C98.5062 52.2443 106.814 43.9368 106.814 33.689C106.814 23.4413 98.5062 15.1338 88.2584 15.1338C78.0106 15.1338 69.7031 23.4413 69.7031 33.689C69.7031 43.9368 78.0106 52.2443 88.2584 52.2443Z" fill="white"/>
</mask>
<g mask="url(#mask0_977_8160)">
<path d="M104.387 19.75L96.1012 14.2109L77.958 15.4698L69.8934 24.6025L67.8105 24.6254C67.8105 24.6254 70.2978 37.9315 77.1187 26.0826C78.0114 29.1421 80.636 35.2306 85.8699 26.4183C86.8617 29.5999 89.555 35.078 94.7431 26.0369H94.7584C95.6968 29.2795 98.6114 36.1156 104.578 24.5033L104.387 19.7424V19.75Z" fill="#171819"/>
</g>
<path d="M76.4787 41.5102C79.0617 41.5102 81.1557 39.4162 81.1557 36.8332C81.1557 34.2502 79.0617 32.1562 76.4787 32.1562C73.8957 32.1562 71.8018 34.2502 71.8018 36.8332C71.8018 39.4162 73.8957 41.5102 76.4787 41.5102Z" fill="white"/>
<path d="M76.4781 38.3967C77.342 38.3967 78.0422 37.6964 78.0422 36.8326C78.0422 35.9688 77.342 35.2686 76.4781 35.2686C75.6143 35.2686 74.9141 35.9688 74.9141 36.8326C74.9141 37.6964 75.6143 38.3967 76.4781 38.3967Z" fill="#171819"/>
<path d="M87.7697 41.5102C90.3528 41.5102 92.4467 39.4162 92.4467 36.8332C92.4467 34.2502 90.3528 32.1562 87.7697 32.1562C85.1867 32.1562 83.0928 34.2502 83.0928 36.8332C83.0928 39.4162 85.1867 41.5102 87.7697 41.5102Z" fill="white"/>
<path d="M87.7701 38.3967C88.6339 38.3967 89.3342 37.6964 89.3342 36.8326C89.3342 35.9688 88.6339 35.2686 87.7701 35.2686C86.9063 35.2686 86.2061 35.9688 86.2061 36.8326C86.2061 37.6964 86.9063 38.3967 87.7701 38.3967Z" fill="#171819"/>
<path d="M82.4215 43.631C84.0058 43.631 85.2902 42.3467 85.2902 40.7623C85.2902 39.1779 84.0058 37.8936 82.4215 37.8936C80.8371 37.8936 79.5527 39.1779 79.5527 40.7623C79.5527 42.3467 80.8371 43.631 82.4215 43.631Z" fill="#00FAC8"/>
</g>
<defs>
<clipPath id="clip0_977_8160">
<path d="M0 16C0 7.16344 7.16344 0 16 0H169.5C178.337 0 185.5 7.16344 185.5 16V57C185.5 65.8366 178.337 73 169.5 73H16C7.16344 73 0 65.8366 0 57V16Z" fill="white"/>
</clipPath>
</defs>
</svg>
