<svg width="24" height="24" viewBox="0 0 24 24" fill="none" xmlns="http://www.w3.org/2000/svg">
<path d="M0 8C0 3.58172 3.58172 0 8 0H16C20.4183 0 24 3.58172 24 8V16C24 20.4183 20.4183 24 16 24H8C3.58172 24 0 20.4183 0 16V8Z" fill="#46494D"/>
<path d="M17.6663 13.9997V7.33301C17.6663 6.66634 17.333 6.33301 16.6663 6.33301H7.33301C6.66634 6.33301 6.33301 6.66634 6.33301 7.33301V16.2523L7.29264 15.2926L7.36621 15.2262C7.54414 15.0805 7.76767 14.9997 7.99967 14.9997H16.6663L17.333 15.9997H7.99967L5.33301 18.6663V6.66634C5.33301 5.93301 5.93301 5.33301 6.66634 5.33301H17.333C18.0663 5.33301 18.6663 5.93301 18.6663 6.66634V14.6663C18.6663 15.3997 18.0663 15.9997 17.333 15.9997L16.6663 14.9997C17.333 14.9997 17.6663 14.6663 17.6663 13.9997Z" fill="#F8F8F8"/>
</svg>
