<svg width="24" height="24" viewBox="0 0 24 24" fill="none" xmlns="http://www.w3.org/2000/svg">
<path d="M8.12001 14.71L12 10.83L15.88 14.71C15.9726 14.8026 16.0825 14.876 16.2035 14.9261C16.3244 14.9762 16.4541 15.002 16.585 15.002C16.7159 15.002 16.8456 14.9762 16.9665 14.9261C17.0875 14.876 17.1974 14.8026 17.29 14.71C17.3826 14.6174 17.456 14.5075 17.5061 14.3865C17.5562 14.2656 17.582 14.1359 17.582 14.005C17.582 13.8741 17.5562 13.7444 17.5061 13.6234C17.456 13.5025 17.3826 13.3926 17.29 13.3L12.7 8.70999C12.6075 8.61728 12.4976 8.54373 12.3766 8.49355C12.2557 8.44337 12.126 8.41754 11.995 8.41754C11.864 8.41754 11.7344 8.44337 11.6134 8.49355C11.4924 8.54373 11.3825 8.61728 11.29 8.70999L6.70001 13.3C6.6073 13.3925 6.53375 13.5024 6.48357 13.6234C6.43339 13.7443 6.40756 13.874 6.40756 14.005C6.40756 14.136 6.43339 14.2656 6.48357 14.3866C6.53375 14.5076 6.6073 14.6175 6.70001 14.71C7.09001 15.09 7.73001 15.1 8.12001 14.71Z" fill="#F8F8F8"/>
</svg>
