<svg width="24" height="24" viewBox="0 0 24 24" fill="none" xmlns="http://www.w3.org/2000/svg">
<path d="M12 8.3999C12.1556 8.3999 12.2987 8.45512 12.4106 8.57168L17.2383 13.4367C17.344 13.541 17.4 13.676 17.4 13.8355C17.4 14.1545 17.1574 14.3999 16.8339 14.3999C16.6784 14.3999 16.5353 14.3324 16.4295 14.2343L12 9.768L7.57054 14.2343C7.46478 14.3324 7.32792 14.3999 7.16617 14.3999C6.84266 14.3999 6.60004 14.1545 6.60004 13.8355C6.60004 13.676 6.65603 13.541 6.76801 13.4367L11.5894 8.57168C11.7076 8.45512 11.8445 8.3999 12 8.3999Z" fill="white" fill-opacity="0.8"/>
</svg>
