<svg width="24" height="24" viewBox="0 0 24 24" fill="none" xmlns="http://www.w3.org/2000/svg">
<path d="M12 14.3999C11.8445 14.3999 11.7014 14.3447 11.5894 14.2281L6.76178 9.36309C6.65602 9.2588 6.60002 9.12383 6.60002 8.96432C6.60002 8.6453 6.84265 8.3999 7.16615 8.3999C7.32168 8.3999 7.46477 8.46739 7.57053 8.56555L12 13.0318L16.4295 8.56555C16.5353 8.46739 16.6721 8.3999 16.8339 8.3999C17.1574 8.3999 17.4 8.6453 17.4 8.96432C17.4 9.12383 17.344 9.2588 17.2321 9.36309L12.4106 14.2281C12.2924 14.3447 12.1556 14.3999 12 14.3999Z" fill="white" fill-opacity="0.8"/>
</svg>
