<svg width="20" height="21" viewBox="0 0 20 21" fill="none" xmlns="http://www.w3.org/2000/svg">
<path d="M13 10C13 10.1296 12.954 10.2488 12.8569 10.3422L8.80266 14.3652C8.71575 14.4533 8.60327 14.5 8.47035 14.5C8.2045 14.5 8 14.2978 8 14.0282C8 13.8986 8.05624 13.7794 8.13804 13.6912L11.8599 10L8.13804 6.30876C8.05624 6.22062 8 6.10657 8 5.97177C8 5.70219 8.2045 5.5 8.47035 5.5C8.60327 5.5 8.71575 5.54666 8.80266 5.63998L12.8569 9.65783C12.954 9.75634 13 9.87039 13 10Z" fill="#A6A6A6"/>
</svg>
